<?xml version="1.0" encoding="utf-8"?>
<svg xmlns="http://www.w3.org/2000/svg" xmlns:xlink="http://www.w3.org/1999/xlink" width="600" height="400" viewBox="0 0 2400 1600">
<defs>
  <clipPath id="clip3600">
    <rect x="0" y="0" width="2400" height="1600"/>
  </clipPath>
</defs>
<polygon clip-path="url(#clip3600)" points="
0,1600 2400,1600 2400,0 0,0 
  " fill="#ffffff" fill-rule="evenodd" fill-opacity="1"/>
<defs>
  <clipPath id="clip3601">
    <rect x="480" y="0" width="1681" height="1600"/>
  </clipPath>
</defs>
<polygon clip-path="url(#clip3600)" points="
182.008,1487.47 2352.76,1487.47 2352.76,47.2441 182.008,47.2441 
  " fill="#ffffff" fill-rule="evenodd" fill-opacity="1"/>
<defs>
  <clipPath id="clip3602">
    <rect x="182" y="47" width="2172" height="1441"/>
  </clipPath>
</defs>
<polyline clip-path="url(#clip3602)" style="stroke:#000000; stroke-width:2; stroke-opacity:0.1; fill:none" points="
  243.444,1487.47 243.444,47.2441 
  "/>
<polyline clip-path="url(#clip3602)" style="stroke:#000000; stroke-width:2; stroke-opacity:0.1; fill:none" points="
  569.374,1487.47 569.374,47.2441 
  "/>
<polyline clip-path="url(#clip3602)" style="stroke:#000000; stroke-width:2; stroke-opacity:0.1; fill:none" points="
  895.303,1487.47 895.303,47.2441 
  "/>
<polyline clip-path="url(#clip3602)" style="stroke:#000000; stroke-width:2; stroke-opacity:0.1; fill:none" points="
  1221.23,1487.47 1221.23,47.2441 
  "/>
<polyline clip-path="url(#clip3602)" style="stroke:#000000; stroke-width:2; stroke-opacity:0.1; fill:none" points="
  1547.16,1487.47 1547.16,47.2441 
  "/>
<polyline clip-path="url(#clip3602)" style="stroke:#000000; stroke-width:2; stroke-opacity:0.1; fill:none" points="
  1873.09,1487.47 1873.09,47.2441 
  "/>
<polyline clip-path="url(#clip3602)" style="stroke:#000000; stroke-width:2; stroke-opacity:0.1; fill:none" points="
  2199.02,1487.47 2199.02,47.2441 
  "/>
<polyline clip-path="url(#clip3602)" style="stroke:#000000; stroke-width:2; stroke-opacity:0.1; fill:none" points="
  182.008,1446.72 2352.76,1446.72 
  "/>
<polyline clip-path="url(#clip3602)" style="stroke:#000000; stroke-width:2; stroke-opacity:0.1; fill:none" points="
  182.008,1107.04 2352.76,1107.04 
  "/>
<polyline clip-path="url(#clip3602)" style="stroke:#000000; stroke-width:2; stroke-opacity:0.1; fill:none" points="
  182.008,767.366 2352.76,767.366 
  "/>
<polyline clip-path="url(#clip3602)" style="stroke:#000000; stroke-width:2; stroke-opacity:0.1; fill:none" points="
  182.008,427.687 2352.76,427.687 
  "/>
<polyline clip-path="url(#clip3602)" style="stroke:#000000; stroke-width:2; stroke-opacity:0.1; fill:none" points="
  182.008,88.0075 2352.76,88.0075 
  "/>
<polyline clip-path="url(#clip3600)" style="stroke:#000000; stroke-width:4; stroke-opacity:1; fill:none" points="
  182.008,1487.47 2352.76,1487.47 
  "/>
<polyline clip-path="url(#clip3600)" style="stroke:#000000; stroke-width:4; stroke-opacity:1; fill:none" points="
  182.008,1487.47 182.008,47.2441 
  "/>
<polyline clip-path="url(#clip3600)" style="stroke:#000000; stroke-width:4; stroke-opacity:1; fill:none" points="
  243.444,1487.47 243.444,1465.87 
  "/>
<polyline clip-path="url(#clip3600)" style="stroke:#000000; stroke-width:4; stroke-opacity:1; fill:none" points="
  569.374,1487.47 569.374,1465.87 
  "/>
<polyline clip-path="url(#clip3600)" style="stroke:#000000; stroke-width:4; stroke-opacity:1; fill:none" points="
  895.303,1487.47 895.303,1465.87 
  "/>
<polyline clip-path="url(#clip3600)" style="stroke:#000000; stroke-width:4; stroke-opacity:1; fill:none" points="
  1221.23,1487.47 1221.23,1465.87 
  "/>
<polyline clip-path="url(#clip3600)" style="stroke:#000000; stroke-width:4; stroke-opacity:1; fill:none" points="
  1547.16,1487.47 1547.16,1465.87 
  "/>
<polyline clip-path="url(#clip3600)" style="stroke:#000000; stroke-width:4; stroke-opacity:1; fill:none" points="
  1873.09,1487.47 1873.09,1465.87 
  "/>
<polyline clip-path="url(#clip3600)" style="stroke:#000000; stroke-width:4; stroke-opacity:1; fill:none" points="
  2199.02,1487.47 2199.02,1465.87 
  "/>
<polyline clip-path="url(#clip3600)" style="stroke:#000000; stroke-width:4; stroke-opacity:1; fill:none" points="
  182.008,1446.72 214.569,1446.72 
  "/>
<polyline clip-path="url(#clip3600)" style="stroke:#000000; stroke-width:4; stroke-opacity:1; fill:none" points="
  182.008,1107.04 214.569,1107.04 
  "/>
<polyline clip-path="url(#clip3600)" style="stroke:#000000; stroke-width:4; stroke-opacity:1; fill:none" points="
  182.008,767.366 214.569,767.366 
  "/>
<polyline clip-path="url(#clip3600)" style="stroke:#000000; stroke-width:4; stroke-opacity:1; fill:none" points="
  182.008,427.687 214.569,427.687 
  "/>
<polyline clip-path="url(#clip3600)" style="stroke:#000000; stroke-width:4; stroke-opacity:1; fill:none" points="
  182.008,88.0075 214.569,88.0075 
  "/>
<g clip-path="url(#clip3600)">
<text style="fill:#000000; fill-opacity:1; font-family:Arial,Helvetica Neue,Helvetica,sans-serif; font-size:48px; text-anchor:middle;" transform="rotate(0, 243.444, 1541.47)" x="243.444" y="1541.47">0</text>
</g>
<g clip-path="url(#clip3600)">
<text style="fill:#000000; fill-opacity:1; font-family:Arial,Helvetica Neue,Helvetica,sans-serif; font-size:48px; text-anchor:middle;" transform="rotate(0, 569.374, 1541.47)" x="569.374" y="1541.47">2</text>
</g>
<g clip-path="url(#clip3600)">
<text style="fill:#000000; fill-opacity:1; font-family:Arial,Helvetica Neue,Helvetica,sans-serif; font-size:48px; text-anchor:middle;" transform="rotate(0, 895.303, 1541.47)" x="895.303" y="1541.47">4</text>
</g>
<g clip-path="url(#clip3600)">
<text style="fill:#000000; fill-opacity:1; font-family:Arial,Helvetica Neue,Helvetica,sans-serif; font-size:48px; text-anchor:middle;" transform="rotate(0, 1221.23, 1541.47)" x="1221.23" y="1541.47">6</text>
</g>
<g clip-path="url(#clip3600)">
<text style="fill:#000000; fill-opacity:1; font-family:Arial,Helvetica Neue,Helvetica,sans-serif; font-size:48px; text-anchor:middle;" transform="rotate(0, 1547.16, 1541.47)" x="1547.16" y="1541.47">8</text>
</g>
<g clip-path="url(#clip3600)">
<text style="fill:#000000; fill-opacity:1; font-family:Arial,Helvetica Neue,Helvetica,sans-serif; font-size:48px; text-anchor:middle;" transform="rotate(0, 1873.09, 1541.47)" x="1873.09" y="1541.47">10</text>
</g>
<g clip-path="url(#clip3600)">
<text style="fill:#000000; fill-opacity:1; font-family:Arial,Helvetica Neue,Helvetica,sans-serif; font-size:48px; text-anchor:middle;" transform="rotate(0, 2199.02, 1541.47)" x="2199.02" y="1541.47">12</text>
</g>
<g clip-path="url(#clip3600)">
<text style="fill:#000000; fill-opacity:1; font-family:Arial,Helvetica Neue,Helvetica,sans-serif; font-size:48px; text-anchor:end;" transform="rotate(0, 158.008, 1464.22)" x="158.008" y="1464.22">-1.0</text>
</g>
<g clip-path="url(#clip3600)">
<text style="fill:#000000; fill-opacity:1; font-family:Arial,Helvetica Neue,Helvetica,sans-serif; font-size:48px; text-anchor:end;" transform="rotate(0, 158.008, 1124.54)" x="158.008" y="1124.54">-0.5</text>
</g>
<g clip-path="url(#clip3600)">
<text style="fill:#000000; fill-opacity:1; font-family:Arial,Helvetica Neue,Helvetica,sans-serif; font-size:48px; text-anchor:end;" transform="rotate(0, 158.008, 784.866)" x="158.008" y="784.866">0.0</text>
</g>
<g clip-path="url(#clip3600)">
<text style="fill:#000000; fill-opacity:1; font-family:Arial,Helvetica Neue,Helvetica,sans-serif; font-size:48px; text-anchor:end;" transform="rotate(0, 158.008, 445.187)" x="158.008" y="445.187">0.5</text>
</g>
<g clip-path="url(#clip3600)">
<text style="fill:#000000; fill-opacity:1; font-family:Arial,Helvetica Neue,Helvetica,sans-serif; font-size:48px; text-anchor:end;" transform="rotate(0, 158.008, 105.508)" x="158.008" y="105.508">1.0</text>
</g>
<polyline clip-path="url(#clip3602)" style="stroke:#009af9; stroke-width:4; stroke-opacity:1; fill:none" points="
  243.444,767.399 309.505,634.923 375.565,507.443 441.626,389.935 507.686,286.981 573.747,202.498 639.807,139.718 705.868,101.06 771.928,88.0053 837.989,101.059 
  904.049,139.717 970.11,202.501 1036.17,286.978 1102.23,389.936 1168.29,507.379 1234.35,634.826 1300.41,767.36 1366.47,899.892 1432.53,1027.34 1498.59,1144.78 
  1564.65,1247.74 1630.71,1332.22 1696.78,1395 1762.84,1433.66 1828.9,1446.71 1894.96,1433.66 1961.02,1395 2027.08,1332.22 2093.14,1247.74 2159.2,1144.79 
  2225.26,1027.34 2291.32,899.89 
  "/>
<polygon clip-path="url(#clip3600)" points="
1989.93,251.724 2280.76,251.724 2280.76,130.764 1989.93,130.764 
  " fill="#ffffff" fill-rule="evenodd" fill-opacity="1"/>
<polyline clip-path="url(#clip3600)" style="stroke:#000000; stroke-width:4; stroke-opacity:1; fill:none" points="
  1989.93,251.724 2280.76,251.724 2280.76,130.764 1989.93,130.764 1989.93,251.724 
  "/>
<polyline clip-path="url(#clip3600)" style="stroke:#009af9; stroke-width:4; stroke-opacity:1; fill:none" points="
  2013.93,191.244 2157.93,191.244 
  "/>
<g clip-path="url(#clip3600)">
<text style="fill:#000000; fill-opacity:1; font-family:Arial,Helvetica Neue,Helvetica,sans-serif; font-size:48px; text-anchor:start;" transform="rotate(0, 2181.93, 208.744)" x="2181.93" y="208.744">y1</text>
</g>
</svg>
