<?xml version="1.0" encoding="utf-8"?>
<svg xmlns="http://www.w3.org/2000/svg" xmlns:xlink="http://www.w3.org/1999/xlink" width="600" height="400" viewBox="0 0 2400 1600">
<defs>
  <clipPath id="clip3900">
    <rect x="0" y="0" width="2400" height="1600"/>
  </clipPath>
</defs>
<polygon clip-path="url(#clip3900)" points="
0,1600 2400,1600 2400,0 0,0 
  " fill="#ffffff" fill-rule="evenodd" fill-opacity="1"/>
<defs>
  <clipPath id="clip3901">
    <rect x="480" y="0" width="1681" height="1600"/>
  </clipPath>
</defs>
<polygon clip-path="url(#clip3900)" points="
141.865,1487.47 2352.76,1487.47 2352.76,47.2441 141.865,47.2441 
  " fill="#ffffff" fill-rule="evenodd" fill-opacity="1"/>
<defs>
  <clipPath id="clip3902">
    <rect x="141" y="47" width="2212" height="1441"/>
  </clipPath>
</defs>
<polyline clip-path="url(#clip3902)" style="stroke:#000000; stroke-width:2; stroke-opacity:0.1; fill:none" points="
  183.369,1487.47 183.369,47.2441 
  "/>
<polyline clip-path="url(#clip3902)" style="stroke:#000000; stroke-width:2; stroke-opacity:0.1; fill:none" points="
  604.732,1487.47 604.732,47.2441 
  "/>
<polyline clip-path="url(#clip3902)" style="stroke:#000000; stroke-width:2; stroke-opacity:0.1; fill:none" points="
  1026.09,1487.47 1026.09,47.2441 
  "/>
<polyline clip-path="url(#clip3902)" style="stroke:#000000; stroke-width:2; stroke-opacity:0.1; fill:none" points="
  1447.46,1487.47 1447.46,47.2441 
  "/>
<polyline clip-path="url(#clip3902)" style="stroke:#000000; stroke-width:2; stroke-opacity:0.1; fill:none" points="
  1868.82,1487.47 1868.82,47.2441 
  "/>
<polyline clip-path="url(#clip3902)" style="stroke:#000000; stroke-width:2; stroke-opacity:0.1; fill:none" points="
  2290.18,1487.47 2290.18,47.2441 
  "/>
<polyline clip-path="url(#clip3902)" style="stroke:#000000; stroke-width:2; stroke-opacity:0.1; fill:none" points="
  141.865,1290.54 2352.76,1290.54 
  "/>
<polyline clip-path="url(#clip3902)" style="stroke:#000000; stroke-width:2; stroke-opacity:0.1; fill:none" points="
  141.865,983.564 2352.76,983.564 
  "/>
<polyline clip-path="url(#clip3902)" style="stroke:#000000; stroke-width:2; stroke-opacity:0.1; fill:none" points="
  141.865,676.589 2352.76,676.589 
  "/>
<polyline clip-path="url(#clip3902)" style="stroke:#000000; stroke-width:2; stroke-opacity:0.1; fill:none" points="
  141.865,369.615 2352.76,369.615 
  "/>
<polyline clip-path="url(#clip3902)" style="stroke:#000000; stroke-width:2; stroke-opacity:0.1; fill:none" points="
  141.865,62.6401 2352.76,62.6401 
  "/>
<polyline clip-path="url(#clip3900)" style="stroke:#000000; stroke-width:4; stroke-opacity:1; fill:none" points="
  141.865,1487.47 2352.76,1487.47 
  "/>
<polyline clip-path="url(#clip3900)" style="stroke:#000000; stroke-width:4; stroke-opacity:1; fill:none" points="
  141.865,1487.47 141.865,47.2441 
  "/>
<polyline clip-path="url(#clip3900)" style="stroke:#000000; stroke-width:4; stroke-opacity:1; fill:none" points="
  183.369,1487.47 183.369,1465.87 
  "/>
<polyline clip-path="url(#clip3900)" style="stroke:#000000; stroke-width:4; stroke-opacity:1; fill:none" points="
  604.732,1487.47 604.732,1465.87 
  "/>
<polyline clip-path="url(#clip3900)" style="stroke:#000000; stroke-width:4; stroke-opacity:1; fill:none" points="
  1026.09,1487.47 1026.09,1465.87 
  "/>
<polyline clip-path="url(#clip3900)" style="stroke:#000000; stroke-width:4; stroke-opacity:1; fill:none" points="
  1447.46,1487.47 1447.46,1465.87 
  "/>
<polyline clip-path="url(#clip3900)" style="stroke:#000000; stroke-width:4; stroke-opacity:1; fill:none" points="
  1868.82,1487.47 1868.82,1465.87 
  "/>
<polyline clip-path="url(#clip3900)" style="stroke:#000000; stroke-width:4; stroke-opacity:1; fill:none" points="
  2290.18,1487.47 2290.18,1465.87 
  "/>
<polyline clip-path="url(#clip3900)" style="stroke:#000000; stroke-width:4; stroke-opacity:1; fill:none" points="
  141.865,1290.54 175.028,1290.54 
  "/>
<polyline clip-path="url(#clip3900)" style="stroke:#000000; stroke-width:4; stroke-opacity:1; fill:none" points="
  141.865,983.564 175.028,983.564 
  "/>
<polyline clip-path="url(#clip3900)" style="stroke:#000000; stroke-width:4; stroke-opacity:1; fill:none" points="
  141.865,676.589 175.028,676.589 
  "/>
<polyline clip-path="url(#clip3900)" style="stroke:#000000; stroke-width:4; stroke-opacity:1; fill:none" points="
  141.865,369.615 175.028,369.615 
  "/>
<polyline clip-path="url(#clip3900)" style="stroke:#000000; stroke-width:4; stroke-opacity:1; fill:none" points="
  141.865,62.6401 175.028,62.6401 
  "/>
<g clip-path="url(#clip3900)">
<text style="fill:#000000; fill-opacity:1; font-family:Arial,Helvetica Neue,Helvetica,sans-serif; font-size:48px; text-anchor:middle;" transform="rotate(0, 183.369, 1541.47)" x="183.369" y="1541.47">0</text>
</g>
<g clip-path="url(#clip3900)">
<text style="fill:#000000; fill-opacity:1; font-family:Arial,Helvetica Neue,Helvetica,sans-serif; font-size:48px; text-anchor:middle;" transform="rotate(0, 604.732, 1541.47)" x="604.732" y="1541.47">1</text>
</g>
<g clip-path="url(#clip3900)">
<text style="fill:#000000; fill-opacity:1; font-family:Arial,Helvetica Neue,Helvetica,sans-serif; font-size:48px; text-anchor:middle;" transform="rotate(0, 1026.09, 1541.47)" x="1026.09" y="1541.47">2</text>
</g>
<g clip-path="url(#clip3900)">
<text style="fill:#000000; fill-opacity:1; font-family:Arial,Helvetica Neue,Helvetica,sans-serif; font-size:48px; text-anchor:middle;" transform="rotate(0, 1447.46, 1541.47)" x="1447.46" y="1541.47">3</text>
</g>
<g clip-path="url(#clip3900)">
<text style="fill:#000000; fill-opacity:1; font-family:Arial,Helvetica Neue,Helvetica,sans-serif; font-size:48px; text-anchor:middle;" transform="rotate(0, 1868.82, 1541.47)" x="1868.82" y="1541.47">4</text>
</g>
<g clip-path="url(#clip3900)">
<text style="fill:#000000; fill-opacity:1; font-family:Arial,Helvetica Neue,Helvetica,sans-serif; font-size:48px; text-anchor:middle;" transform="rotate(0, 2290.18, 1541.47)" x="2290.18" y="1541.47">5</text>
</g>
<g clip-path="url(#clip3900)">
<text style="fill:#000000; fill-opacity:1; font-family:Arial,Helvetica Neue,Helvetica,sans-serif; font-size:48px; text-anchor:end;" transform="rotate(0, 117.865, 1308.04)" x="117.865" y="1308.04">-6</text>
</g>
<g clip-path="url(#clip3900)">
<text style="fill:#000000; fill-opacity:1; font-family:Arial,Helvetica Neue,Helvetica,sans-serif; font-size:48px; text-anchor:end;" transform="rotate(0, 117.865, 1001.06)" x="117.865" y="1001.06">-4</text>
</g>
<g clip-path="url(#clip3900)">
<text style="fill:#000000; fill-opacity:1; font-family:Arial,Helvetica Neue,Helvetica,sans-serif; font-size:48px; text-anchor:end;" transform="rotate(0, 117.865, 694.089)" x="117.865" y="694.089">-2</text>
</g>
<g clip-path="url(#clip3900)">
<text style="fill:#000000; fill-opacity:1; font-family:Arial,Helvetica Neue,Helvetica,sans-serif; font-size:48px; text-anchor:end;" transform="rotate(0, 117.865, 387.115)" x="117.865" y="387.115">0</text>
</g>
<g clip-path="url(#clip3900)">
<text style="fill:#000000; fill-opacity:1; font-family:Arial,Helvetica Neue,Helvetica,sans-serif; font-size:48px; text-anchor:end;" transform="rotate(0, 117.865, 80.1401)" x="117.865" y="80.1401">2</text>
</g>
<polyline clip-path="url(#clip3902)" style="stroke:#009af9; stroke-width:4; stroke-opacity:1; fill:none" points="
  204.437,88.0053 225.505,89.4474 246.573,91.8588 267.641,95.2517 288.71,99.6438 309.778,105.059 330.846,111.526 351.914,119.083 372.982,127.774 394.05,137.655 
  415.118,148.79 436.187,161.258 457.255,175.154 478.323,190.592 499.391,207.709 520.459,226.674 541.527,247.694 562.595,271.028 583.664,297.004 604.732,326.045 
  625.8,358.709 646.868,395.755 667.936,438.248 689.004,487.753 710.072,546.709 731.141,619.227 752.209,713.08 773.277,845.908 794.345,1073.94 815.413,1446.71 
  836.481,1012.96 857.55,827.843 878.618,716.335 899.686,637.919 920.754,578.468 941.822,531.418 962.89,493.191 983.958,461.626 1005.03,435.318 1026.09,413.303 
  1047.16,394.894 1068.23,379.585 1089.3,367.002 1110.37,356.856 1131.44,348.923 1152.5,343.032 1173.57,339.048 1194.64,336.869 1215.71,336.423 1236.78,337.657 
  1257.84,340.542 1278.91,345.069 1299.98,351.246 1321.05,359.097 1342.12,368.666 1363.19,380.026 1384.25,393.273 1405.32,408.527 1426.39,425.945 1447.46,445.733 
  1468.53,468.158 1489.59,493.563 1510.66,522.394 1531.73,555.252 1552.8,592.975 1573.87,636.765 1594.93,688.406 1616,750.81 1637.07,829.067 1658.14,933.284 
  1679.21,1088.75 1700.28,1397.51 1721.34,1438.28 1742.41,1116.13 1763.48,964.22 1784.55,866.544 1805.62,795.791 1826.68,741.303 1847.75,697.813 1868.82,662.373 
  1889.89,633.14 1910.96,608.854 1932.03,588.642 1953.09,571.905 1974.16,558.192 1995.23,547.146 2016.3,538.495 2037.37,532.041 2058.43,527.633 2079.5,525.155 
  2100.57,524.505 2121.64,525.604 2142.71,528.403 2163.77,532.876 2184.84,539.017 2205.91,546.819 2226.98,556.309 2248.05,567.537 2269.12,580.554 2290.18,595.432 
  
  "/>
<polygon clip-path="url(#clip3900)" points="
1989.93,251.724 2280.76,251.724 2280.76,130.764 1989.93,130.764 
  " fill="#ffffff" fill-rule="evenodd" fill-opacity="1"/>
<polyline clip-path="url(#clip3900)" style="stroke:#000000; stroke-width:4; stroke-opacity:1; fill:none" points="
  1989.93,251.724 2280.76,251.724 2280.76,130.764 1989.93,130.764 1989.93,251.724 
  "/>
<polyline clip-path="url(#clip3900)" style="stroke:#009af9; stroke-width:4; stroke-opacity:1; fill:none" points="
  2013.93,191.244 2157.93,191.244 
  "/>
<g clip-path="url(#clip3900)">
<text style="fill:#000000; fill-opacity:1; font-family:Arial,Helvetica Neue,Helvetica,sans-serif; font-size:48px; text-anchor:start;" transform="rotate(0, 2181.93, 208.744)" x="2181.93" y="208.744">y1</text>
</g>
</svg>
