<?xml version="1.0" encoding="utf-8"?>
<svg xmlns="http://www.w3.org/2000/svg" xmlns:xlink="http://www.w3.org/1999/xlink" width="600" height="400" viewBox="0 0 2400 1600">
<defs>
  <clipPath id="clip3100">
    <rect x="0" y="0" width="2400" height="1600"/>
  </clipPath>
</defs>
<polygon clip-path="url(#clip3100)" points="
0,1600 2400,1600 2400,0 0,0 
  " fill="#ffffff" fill-rule="evenodd" fill-opacity="1"/>
<defs>
  <clipPath id="clip3101">
    <rect x="480" y="0" width="1681" height="1600"/>
  </clipPath>
</defs>
<polygon clip-path="url(#clip3100)" points="
182.008,1487.47 2352.76,1487.47 2352.76,47.2441 182.008,47.2441 
  " fill="#ffffff" fill-rule="evenodd" fill-opacity="1"/>
<defs>
  <clipPath id="clip3102">
    <rect x="182" y="47" width="2172" height="1441"/>
  </clipPath>
</defs>
<polyline clip-path="url(#clip3102)" style="stroke:#000000; stroke-width:2; stroke-opacity:0.1; fill:none" points="
  239.34,1487.47 239.34,47.2441 
  "/>
<polyline clip-path="url(#clip3102)" style="stroke:#000000; stroke-width:2; stroke-opacity:0.1; fill:none" points="
  649.736,1487.47 649.736,47.2441 
  "/>
<polyline clip-path="url(#clip3102)" style="stroke:#000000; stroke-width:2; stroke-opacity:0.1; fill:none" points="
  1060.13,1487.47 1060.13,47.2441 
  "/>
<polyline clip-path="url(#clip3102)" style="stroke:#000000; stroke-width:2; stroke-opacity:0.1; fill:none" points="
  1470.53,1487.47 1470.53,47.2441 
  "/>
<polyline clip-path="url(#clip3102)" style="stroke:#000000; stroke-width:2; stroke-opacity:0.1; fill:none" points="
  1880.92,1487.47 1880.92,47.2441 
  "/>
<polyline clip-path="url(#clip3102)" style="stroke:#000000; stroke-width:2; stroke-opacity:0.1; fill:none" points="
  2291.32,1487.47 2291.32,47.2441 
  "/>
<polyline clip-path="url(#clip3102)" style="stroke:#000000; stroke-width:2; stroke-opacity:0.1; fill:none" points="
  182.008,1278.19 2352.76,1278.19 
  "/>
<polyline clip-path="url(#clip3102)" style="stroke:#000000; stroke-width:2; stroke-opacity:0.1; fill:none" points="
  182.008,959.442 2352.76,959.442 
  "/>
<polyline clip-path="url(#clip3102)" style="stroke:#000000; stroke-width:2; stroke-opacity:0.1; fill:none" points="
  182.008,640.689 2352.76,640.689 
  "/>
<polyline clip-path="url(#clip3102)" style="stroke:#000000; stroke-width:2; stroke-opacity:0.1; fill:none" points="
  182.008,321.937 2352.76,321.937 
  "/>
<polyline clip-path="url(#clip3100)" style="stroke:#000000; stroke-width:4; stroke-opacity:1; fill:none" points="
  182.008,1487.47 2352.76,1487.47 
  "/>
<polyline clip-path="url(#clip3100)" style="stroke:#000000; stroke-width:4; stroke-opacity:1; fill:none" points="
  182.008,1487.47 182.008,47.2441 
  "/>
<polyline clip-path="url(#clip3100)" style="stroke:#000000; stroke-width:4; stroke-opacity:1; fill:none" points="
  239.34,1487.47 239.34,1465.87 
  "/>
<polyline clip-path="url(#clip3100)" style="stroke:#000000; stroke-width:4; stroke-opacity:1; fill:none" points="
  649.736,1487.47 649.736,1465.87 
  "/>
<polyline clip-path="url(#clip3100)" style="stroke:#000000; stroke-width:4; stroke-opacity:1; fill:none" points="
  1060.13,1487.47 1060.13,1465.87 
  "/>
<polyline clip-path="url(#clip3100)" style="stroke:#000000; stroke-width:4; stroke-opacity:1; fill:none" points="
  1470.53,1487.47 1470.53,1465.87 
  "/>
<polyline clip-path="url(#clip3100)" style="stroke:#000000; stroke-width:4; stroke-opacity:1; fill:none" points="
  1880.92,1487.47 1880.92,1465.87 
  "/>
<polyline clip-path="url(#clip3100)" style="stroke:#000000; stroke-width:4; stroke-opacity:1; fill:none" points="
  2291.32,1487.47 2291.32,1465.87 
  "/>
<polyline clip-path="url(#clip3100)" style="stroke:#000000; stroke-width:4; stroke-opacity:1; fill:none" points="
  182.008,1278.19 214.569,1278.19 
  "/>
<polyline clip-path="url(#clip3100)" style="stroke:#000000; stroke-width:4; stroke-opacity:1; fill:none" points="
  182.008,959.442 214.569,959.442 
  "/>
<polyline clip-path="url(#clip3100)" style="stroke:#000000; stroke-width:4; stroke-opacity:1; fill:none" points="
  182.008,640.689 214.569,640.689 
  "/>
<polyline clip-path="url(#clip3100)" style="stroke:#000000; stroke-width:4; stroke-opacity:1; fill:none" points="
  182.008,321.937 214.569,321.937 
  "/>
<g clip-path="url(#clip3100)">
<text style="fill:#000000; fill-opacity:1; font-family:Arial,Helvetica Neue,Helvetica,sans-serif; font-size:48px; text-anchor:middle;" transform="rotate(0, 239.34, 1541.47)" x="239.34" y="1541.47">0</text>
</g>
<g clip-path="url(#clip3100)">
<text style="fill:#000000; fill-opacity:1; font-family:Arial,Helvetica Neue,Helvetica,sans-serif; font-size:48px; text-anchor:middle;" transform="rotate(0, 649.736, 1541.47)" x="649.736" y="1541.47">5</text>
</g>
<g clip-path="url(#clip3100)">
<text style="fill:#000000; fill-opacity:1; font-family:Arial,Helvetica Neue,Helvetica,sans-serif; font-size:48px; text-anchor:middle;" transform="rotate(0, 1060.13, 1541.47)" x="1060.13" y="1541.47">10</text>
</g>
<g clip-path="url(#clip3100)">
<text style="fill:#000000; fill-opacity:1; font-family:Arial,Helvetica Neue,Helvetica,sans-serif; font-size:48px; text-anchor:middle;" transform="rotate(0, 1470.53, 1541.47)" x="1470.53" y="1541.47">15</text>
</g>
<g clip-path="url(#clip3100)">
<text style="fill:#000000; fill-opacity:1; font-family:Arial,Helvetica Neue,Helvetica,sans-serif; font-size:48px; text-anchor:middle;" transform="rotate(0, 1880.92, 1541.47)" x="1880.92" y="1541.47">20</text>
</g>
<g clip-path="url(#clip3100)">
<text style="fill:#000000; fill-opacity:1; font-family:Arial,Helvetica Neue,Helvetica,sans-serif; font-size:48px; text-anchor:middle;" transform="rotate(0, 2291.32, 1541.47)" x="2291.32" y="1541.47">25</text>
</g>
<g clip-path="url(#clip3100)">
<text style="fill:#000000; fill-opacity:1; font-family:Arial,Helvetica Neue,Helvetica,sans-serif; font-size:48px; text-anchor:end;" transform="rotate(0, 158.008, 1295.69)" x="158.008" y="1295.69">-7.5</text>
</g>
<g clip-path="url(#clip3100)">
<text style="fill:#000000; fill-opacity:1; font-family:Arial,Helvetica Neue,Helvetica,sans-serif; font-size:48px; text-anchor:end;" transform="rotate(0, 158.008, 976.942)" x="158.008" y="976.942">-5.0</text>
</g>
<g clip-path="url(#clip3100)">
<text style="fill:#000000; fill-opacity:1; font-family:Arial,Helvetica Neue,Helvetica,sans-serif; font-size:48px; text-anchor:end;" transform="rotate(0, 158.008, 658.189)" x="158.008" y="658.189">-2.5</text>
</g>
<g clip-path="url(#clip3100)">
<text style="fill:#000000; fill-opacity:1; font-family:Arial,Helvetica Neue,Helvetica,sans-serif; font-size:48px; text-anchor:end;" transform="rotate(0, 158.008, 339.437)" x="158.008" y="339.437">0.0</text>
</g>
<polyline clip-path="url(#clip3102)" style="stroke:#009af9; stroke-width:4; stroke-opacity:1; fill:none" points="
  243.444,88.0053 247.548,89.2033 251.652,91.2064 255.756,94.0248 259.86,97.6733 263.964,102.171 268.068,107.544 272.172,113.821 276.276,121.041 280.38,129.249 
  284.484,138.499 288.588,148.856 292.692,160.399 296.796,173.223 300.9,187.442 305.004,203.196 309.108,220.658 313.212,240.041 317.316,261.62 321.42,285.743 
  325.523,312.877 329.627,343.651 333.731,378.95 337.835,420.074 341.939,469.048 346.043,529.288 350.147,607.251 354.251,717.591 358.355,907.013 362.459,1216.68 
  366.563,856.358 370.667,702.584 374.771,609.955 378.875,544.816 382.979,495.43 387.083,456.345 391.187,424.591 395.291,398.37 399.395,376.516 403.499,358.229 
  407.603,342.936 411.707,330.219 415.811,319.766 419.915,311.338 424.018,304.748 428.122,299.855 432.226,296.545 436.33,294.735 440.434,294.364 444.538,295.39 
  448.642,297.786 452.746,301.547 456.85,306.678 460.954,313.199 465.058,321.148 469.162,330.585 473.266,341.589 477.37,354.261 481.474,368.73 485.578,385.168 
  489.682,403.796 493.786,424.899 497.89,448.849 501.994,476.144 506.098,507.481 510.202,543.857 514.306,586.755 518.41,638.593 522.514,703.6 526.617,790.174 
  530.721,919.321 534.825,1175.81 538.929,1209.67 543.033,942.06 547.137,815.872 551.241,734.733 555.345,675.958 559.449,630.696 563.553,594.569 567.657,565.129 
  571.761,540.845 575.865,520.671 579.969,503.881 584.073,489.978 588.177,478.587 592.281,469.41 596.385,462.225 600.489,456.863 604.593,453.202 608.697,451.143 
  612.801,450.603 616.905,451.516 621.009,453.841 625.112,457.557 629.216,462.658 633.32,469.139 637.424,477.023 641.528,486.35 645.632,497.162 649.736,509.522 
  653.84,523.511 657.944,539.244 662.048,556.862 666.152,576.55 670.256,598.568 674.36,623.227 678.464,650.919 682.568,682.21 686.672,717.943 690.776,759.269 
  694.88,807.915 698.984,866.916 703.088,941.725 707.192,1044.04 711.296,1203.38 715.4,1446.71 719.504,1247.77 723.607,1087.09 727.711,991.503 731.815,926.097 
  735.919,877.352 740.023,839.426 744.127,809.155 748.231,784.616 752.335,764.579 756.439,748.27 760.543,735.106 764.647,724.569 768.751,716.272 772.855,709.946 
  776.959,705.434 781.063,702.603 785.167,701.3 789.271,701.399 793.375,702.781 797.479,705.385 801.583,709.174 805.687,714.08 809.791,720.011 813.895,726.929 
  817.999,734.835 822.102,743.75 826.206,753.69 830.31,764.659 834.414,776.604 838.518,789.356 842.622,802.767 846.726,816.84 850.83,831.596 854.934,847.141 
  859.038,863.51 863.142,880.752 867.246,898.837 871.35,917.508 875.454,936.656 879.558,955.954 883.662,975.572 887.766,995.993 891.87,1018 895.974,1042.25 
  900.078,1068.3 904.182,1093.93 908.286,1118.24 912.39,1143.78 916.494,1170.17 920.597,1196.77 924.701,1226.39 928.805,1257.78 932.909,1283.76 937.013,1303.37 
  941.117,1319.56 945.221,1329.91 949.325,1337.39 953.429,1340.96 957.533,1339.64 961.637,1332.79 965.741,1316.34 969.845,1290.99 973.949,1261.26 978.053,1233.04 
  982.157,1209.25 986.261,1186.83 990.365,1162.53 994.469,1136.16 998.573,1109.53 1002.68,1083.88 1006.78,1060.07 1010.88,1038.61 1014.99,1018.86 1019.09,999.877 
  1023.2,981.539 1027.3,964.048 1031.4,947.689 1035.51,932.845 1039.61,919.812 1043.72,908.373 1047.82,898.14 1051.92,888.926 1056.03,880.452 1060.13,872.695 
  1064.24,865.764 1068.34,859.631 1072.44,854.352 1076.55,850.045 1080.65,846.859 1084.76,844.812 1088.86,843.789 1092.96,843.843 1097.07,844.99 1101.17,847.086 
  1105.28,850.125 1109.38,854.222 1113.48,859.636 1117.59,866.563 1121.69,874.955 1125.8,884.884 1129.9,896.562 1134,910.099 1138.11,925.568 1142.21,943.263 
  1146.32,963.753 1150.42,987.862 1154.52,1016.32 1158.63,1049.89 1162.73,1089.39 1166.83,1135.57 1170.94,1191.04 1175.04,1257.43 1179.15,1326.54 1183.25,1373.46 
  1187.35,1357.68 1191.46,1289.06 1195.56,1215.97 1199.67,1153.38 1203.77,1101.89 1207.87,1060.13 1211.98,1025.31 1216.08,995.421 1220.19,969.789 1224.29,948.117 
  1228.39,929.437 1232.5,912.928 1236.6,898.431 1240.71,885.854 1244.81,874.952 1248.91,865.853 1253.02,858.713 1257.12,853.295 1261.23,849.309 1265.33,846.468 
  1269.43,844.682 1273.54,843.863 1277.64,843.95 1281.75,845.069 1285.85,847.337 1289.95,850.702 1294.06,855.117 1298.16,860.625 1302.27,867.433 1306.37,875.615 
  1310.47,885.028 1314.58,895.686 1318.68,907.84 1322.79,921.938 1326.89,937.908 1330.99,955.314 1335.1,974.215 1339.2,994.788 1343.31,1017.19 1347.41,1041.68 
  1351.51,1068.83 1355.62,1099.11 1359.72,1132.39 1363.83,1167.44 1367.93,1203.66 1372.03,1238.58 1376.14,1265.05 1380.24,1276.27 1384.34,1271 1388.45,1250.79 
  1392.55,1219.98 1396.66,1185.22 1400.76,1153.13 1404.86,1125.35 1408.97,1100.78 1413.07,1079.63 1417.18,1061.63 1421.28,1045.96 1425.38,1032.21 1429.49,1020.32 
  1433.59,1009.97 1437.7,1000.62 1441.8,991.754 1445.9,983.374 1450.01,975.802 1454.11,968.849 1458.22,962.267 1462.32,956.017 1466.42,950.388 1470.53,945.673 
  1474.63,941.841 1478.74,938.887 1482.84,936.802 1486.94,935.574 1491.05,934.847 1495.15,934.466 1499.26,934.61 1503.36,935.404 1507.46,936.908 1511.57,939.28 
  1515.67,942.684 1519.78,947.194 1523.88,952.897 1527.98,959.844 1532.09,967.827 1536.19,976.955 1540.3,987.26 1544.4,998.3 1548.5,1009.95 1552.61,1022.24 
  1556.71,1035.3 1560.82,1048.88 1564.92,1062.2 1569.02,1075.09 1573.13,1087.57 1577.23,1100.13 1581.33,1112.88 1585.44,1125.95 1589.54,1138.47 1593.65,1149.13 
  1597.75,1156.76 1601.85,1160.53 1605.96,1161.65 1610.06,1162.53 1614.17,1162.16 1618.27,1158.17 1622.37,1151.64 1626.48,1143.65 1630.58,1133.74 1634.69,1121.42 
  1638.79,1105.95 1642.89,1088.03 1647,1069.5 1651.1,1050.82 1655.21,1033.09 1659.31,1017.42 1663.41,1003.37 1667.52,990.119 1671.62,977.164 1675.73,964.85 
  1679.83,953.745 1683.93,943.884 1688.04,935.328 1692.14,927.998 1696.25,921.807 1700.35,916.766 1704.45,912.623 1708.56,908.971 1712.66,905.836 1716.77,903.619 
  1720.87,902.476 1724.97,902.384 1729.08,903.259 1733.18,905.138 1737.29,908.2 1741.39,912.499 1745.49,917.952 1749.6,924.329 1753.7,931.771 1757.81,940.77 
  1761.91,951.622 1766.01,964.225 1770.12,978.382 1774.22,994.003 1778.32,1011.16 1782.43,1029.96 1786.53,1050.69 1790.64,1074.14 1794.74,1100.79 1798.84,1130.12 
  1802.95,1161.92 1807.05,1194.64 1811.16,1222.45 1815.26,1239.37 1819.36,1241.31 1823.47,1229.08 1827.57,1207.2 1831.68,1179.25 1835.78,1149.27 1839.88,1120.83 
  1843.99,1093.98 1848.09,1068.46 1852.2,1044.68 1856.3,1022.49 1860.4,1001.9 1864.51,983.119 1868.61,966.062 1872.72,950.626 1876.82,936.67 1880.92,924.138 
  1885.03,913.123 1889.13,903.542 1893.24,895.172 1897.34,887.849 1901.44,881.391 1905.55,875.745 1909.65,871.041 1913.76,867.427 1917.86,864.843 1921.96,863.161 
  1926.07,862.26 1930.17,862.024 1934.28,862.543 1938.38,863.983 1942.48,866.436 1946.59,869.829 1950.69,874.106 1954.8,879.295 1958.9,885.357 1963,892.303 
  1967.11,900.281 1971.21,909.438 1975.31,919.644 1979.42,930.799 1983.52,942.921 1987.63,956.049 1991.73,970.175 1995.83,985.383 1999.94,1001.98 2004.04,1019.98 
  2008.15,1039 2012.25,1058.57 2016.35,1077.9 2020.46,1096.28 2024.56,1113.04 2028.67,1126.04 2032.77,1133.27 2036.87,1133.9 2040.98,1127.77 2045.08,1116.25 
  2049.19,1101.41 2053.29,1084.21 2057.39,1064.98 2061.5,1044.63 2065.6,1024.18 2069.71,1004.27 2073.81,985.097 2077.91,966.926 2082.02,950.058 2086.12,934.577 
  2090.23,920.36 2094.33,907.2 2098.43,895.068 2102.54,884.021 2106.64,874.07 2110.75,865.331 2114.85,857.899 2118.95,851.62 2123.06,846.244 2127.16,841.715 
  2131.27,838.165 2135.37,835.614 2139.47,833.902 2143.58,832.898 2147.68,832.545 2151.79,832.956 2155.89,834.18 2159.99,836.107 2164.1,838.766 2168.2,842.318 
  2172.3,846.883 2176.41,852.505 2180.51,859.257 2184.62,867.233 2188.72,876.514 2192.82,887.126 2196.93,899.127 2201.03,912.645 2205.14,927.865 2209.24,944.931 
  2213.34,963.847 2217.45,984.938 2221.55,1008.94 2225.66,1036.27 2229.76,1066.83 2233.86,1099.8 2237.97,1132.79 2242.07,1162.18 2246.18,1181.52 2250.28,1185.91 
  2254.38,1176.17 2258.49,1153.64 2262.59,1123.11 2266.7,1089.65 2270.8,1055.98 2274.9,1023.62 2279.01,993.423 2283.11,965.654 2287.22,940.626 2291.32,918.316 
  
  "/>
<polygon clip-path="url(#clip3100)" points="
1989.93,251.724 2280.76,251.724 2280.76,130.764 1989.93,130.764 
  " fill="#ffffff" fill-rule="evenodd" fill-opacity="1"/>
<polyline clip-path="url(#clip3100)" style="stroke:#000000; stroke-width:4; stroke-opacity:1; fill:none" points="
  1989.93,251.724 2280.76,251.724 2280.76,130.764 1989.93,130.764 1989.93,251.724 
  "/>
<polyline clip-path="url(#clip3100)" style="stroke:#009af9; stroke-width:4; stroke-opacity:1; fill:none" points="
  2013.93,191.244 2157.93,191.244 
  "/>
<g clip-path="url(#clip3100)">
<text style="fill:#000000; fill-opacity:1; font-family:Arial,Helvetica Neue,Helvetica,sans-serif; font-size:48px; text-anchor:start;" transform="rotate(0, 2181.93, 208.744)" x="2181.93" y="208.744">y1</text>
</g>
</svg>
