<?xml version="1.0" encoding="utf-8"?>
<svg xmlns="http://www.w3.org/2000/svg" xmlns:xlink="http://www.w3.org/1999/xlink" width="600" height="400" viewBox="0 0 2400 1600">
<defs>
  <clipPath id="clip4200">
    <rect x="0" y="0" width="2400" height="1600"/>
  </clipPath>
</defs>
<polygon clip-path="url(#clip4200)" points="
0,1600 2400,1600 2400,0 0,0 
  " fill="#ffffff" fill-rule="evenodd" fill-opacity="1"/>
<defs>
  <clipPath id="clip4201">
    <rect x="480" y="0" width="1681" height="1600"/>
  </clipPath>
</defs>
<polygon clip-path="url(#clip4200)" points="
153.898,1487.47 2352.76,1487.47 2352.76,47.2441 153.898,47.2441 
  " fill="#ffffff" fill-rule="evenodd" fill-opacity="1"/>
<defs>
  <clipPath id="clip4202">
    <rect x="153" y="47" width="2200" height="1441"/>
  </clipPath>
</defs>
<polyline clip-path="url(#clip4202)" style="stroke:#000000; stroke-width:2; stroke-opacity:0.1; fill:none" points="
  216.13,1487.47 216.13,47.2441 
  "/>
<polyline clip-path="url(#clip4202)" style="stroke:#000000; stroke-width:2; stroke-opacity:0.1; fill:none" points="
  546.28,1487.47 546.28,47.2441 
  "/>
<polyline clip-path="url(#clip4202)" style="stroke:#000000; stroke-width:2; stroke-opacity:0.1; fill:none" points="
  876.43,1487.47 876.43,47.2441 
  "/>
<polyline clip-path="url(#clip4202)" style="stroke:#000000; stroke-width:2; stroke-opacity:0.1; fill:none" points="
  1206.58,1487.47 1206.58,47.2441 
  "/>
<polyline clip-path="url(#clip4202)" style="stroke:#000000; stroke-width:2; stroke-opacity:0.1; fill:none" points="
  1536.73,1487.47 1536.73,47.2441 
  "/>
<polyline clip-path="url(#clip4202)" style="stroke:#000000; stroke-width:2; stroke-opacity:0.1; fill:none" points="
  1866.88,1487.47 1866.88,47.2441 
  "/>
<polyline clip-path="url(#clip4202)" style="stroke:#000000; stroke-width:2; stroke-opacity:0.1; fill:none" points="
  2197.03,1487.47 2197.03,47.2441 
  "/>
<polyline clip-path="url(#clip4202)" style="stroke:#000000; stroke-width:2; stroke-opacity:0.1; fill:none" points="
  153.898,1444.89 2352.76,1444.89 
  "/>
<polyline clip-path="url(#clip4202)" style="stroke:#000000; stroke-width:2; stroke-opacity:0.1; fill:none" points="
  153.898,1093.25 2352.76,1093.25 
  "/>
<polyline clip-path="url(#clip4202)" style="stroke:#000000; stroke-width:2; stroke-opacity:0.1; fill:none" points="
  153.898,741.601 2352.76,741.601 
  "/>
<polyline clip-path="url(#clip4202)" style="stroke:#000000; stroke-width:2; stroke-opacity:0.1; fill:none" points="
  153.898,389.954 2352.76,389.954 
  "/>
<polyline clip-path="url(#clip4200)" style="stroke:#000000; stroke-width:4; stroke-opacity:1; fill:none" points="
  153.898,1487.47 2352.76,1487.47 
  "/>
<polyline clip-path="url(#clip4200)" style="stroke:#000000; stroke-width:4; stroke-opacity:1; fill:none" points="
  153.898,1487.47 153.898,47.2441 
  "/>
<polyline clip-path="url(#clip4200)" style="stroke:#000000; stroke-width:4; stroke-opacity:1; fill:none" points="
  216.13,1487.47 216.13,1465.87 
  "/>
<polyline clip-path="url(#clip4200)" style="stroke:#000000; stroke-width:4; stroke-opacity:1; fill:none" points="
  546.28,1487.47 546.28,1465.87 
  "/>
<polyline clip-path="url(#clip4200)" style="stroke:#000000; stroke-width:4; stroke-opacity:1; fill:none" points="
  876.43,1487.47 876.43,1465.87 
  "/>
<polyline clip-path="url(#clip4200)" style="stroke:#000000; stroke-width:4; stroke-opacity:1; fill:none" points="
  1206.58,1487.47 1206.58,1465.87 
  "/>
<polyline clip-path="url(#clip4200)" style="stroke:#000000; stroke-width:4; stroke-opacity:1; fill:none" points="
  1536.73,1487.47 1536.73,1465.87 
  "/>
<polyline clip-path="url(#clip4200)" style="stroke:#000000; stroke-width:4; stroke-opacity:1; fill:none" points="
  1866.88,1487.47 1866.88,1465.87 
  "/>
<polyline clip-path="url(#clip4200)" style="stroke:#000000; stroke-width:4; stroke-opacity:1; fill:none" points="
  2197.03,1487.47 2197.03,1465.87 
  "/>
<polyline clip-path="url(#clip4200)" style="stroke:#000000; stroke-width:4; stroke-opacity:1; fill:none" points="
  153.898,1444.89 186.881,1444.89 
  "/>
<polyline clip-path="url(#clip4200)" style="stroke:#000000; stroke-width:4; stroke-opacity:1; fill:none" points="
  153.898,1093.25 186.881,1093.25 
  "/>
<polyline clip-path="url(#clip4200)" style="stroke:#000000; stroke-width:4; stroke-opacity:1; fill:none" points="
  153.898,741.601 186.881,741.601 
  "/>
<polyline clip-path="url(#clip4200)" style="stroke:#000000; stroke-width:4; stroke-opacity:1; fill:none" points="
  153.898,389.954 186.881,389.954 
  "/>
<g clip-path="url(#clip4200)">
<text style="fill:#000000; fill-opacity:1; font-family:Arial,Helvetica Neue,Helvetica,sans-serif; font-size:48px; text-anchor:middle;" transform="rotate(0, 216.13, 1541.47)" x="216.13" y="1541.47">0</text>
</g>
<g clip-path="url(#clip4200)">
<text style="fill:#000000; fill-opacity:1; font-family:Arial,Helvetica Neue,Helvetica,sans-serif; font-size:48px; text-anchor:middle;" transform="rotate(0, 546.28, 1541.47)" x="546.28" y="1541.47">2</text>
</g>
<g clip-path="url(#clip4200)">
<text style="fill:#000000; fill-opacity:1; font-family:Arial,Helvetica Neue,Helvetica,sans-serif; font-size:48px; text-anchor:middle;" transform="rotate(0, 876.43, 1541.47)" x="876.43" y="1541.47">4</text>
</g>
<g clip-path="url(#clip4200)">
<text style="fill:#000000; fill-opacity:1; font-family:Arial,Helvetica Neue,Helvetica,sans-serif; font-size:48px; text-anchor:middle;" transform="rotate(0, 1206.58, 1541.47)" x="1206.58" y="1541.47">6</text>
</g>
<g clip-path="url(#clip4200)">
<text style="fill:#000000; fill-opacity:1; font-family:Arial,Helvetica Neue,Helvetica,sans-serif; font-size:48px; text-anchor:middle;" transform="rotate(0, 1536.73, 1541.47)" x="1536.73" y="1541.47">8</text>
</g>
<g clip-path="url(#clip4200)">
<text style="fill:#000000; fill-opacity:1; font-family:Arial,Helvetica Neue,Helvetica,sans-serif; font-size:48px; text-anchor:middle;" transform="rotate(0, 1866.88, 1541.47)" x="1866.88" y="1541.47">10</text>
</g>
<g clip-path="url(#clip4200)">
<text style="fill:#000000; fill-opacity:1; font-family:Arial,Helvetica Neue,Helvetica,sans-serif; font-size:48px; text-anchor:middle;" transform="rotate(0, 2197.03, 1541.47)" x="2197.03" y="1541.47">12</text>
</g>
<g clip-path="url(#clip4200)">
<text style="fill:#000000; fill-opacity:1; font-family:Arial,Helvetica Neue,Helvetica,sans-serif; font-size:48px; text-anchor:end;" transform="rotate(0, 129.898, 1462.39)" x="129.898" y="1462.39">0.2</text>
</g>
<g clip-path="url(#clip4200)">
<text style="fill:#000000; fill-opacity:1; font-family:Arial,Helvetica Neue,Helvetica,sans-serif; font-size:48px; text-anchor:end;" transform="rotate(0, 129.898, 1110.75)" x="129.898" y="1110.75">0.3</text>
</g>
<g clip-path="url(#clip4200)">
<text style="fill:#000000; fill-opacity:1; font-family:Arial,Helvetica Neue,Helvetica,sans-serif; font-size:48px; text-anchor:end;" transform="rotate(0, 129.898, 759.101)" x="129.898" y="759.101">0.4</text>
</g>
<g clip-path="url(#clip4200)">
<text style="fill:#000000; fill-opacity:1; font-family:Arial,Helvetica Neue,Helvetica,sans-serif; font-size:48px; text-anchor:end;" transform="rotate(0, 129.898, 407.454)" x="129.898" y="407.454">0.5</text>
</g>
<polyline clip-path="url(#clip4202)" style="stroke:#009af9; stroke-width:4; stroke-opacity:1; fill:none" points="
  216.13,88.0053 283.046,113.84 349.962,164.953 416.878,239.437 483.794,334.153 550.71,445.438 617.625,569.089 684.541,700.355 751.457,834.192 818.373,965.461 
  885.289,1089.11 952.205,1200.38 1019.12,1295.04 1086.04,1369.38 1152.95,1420.61 1219.87,1446.71 1286.78,1446.71 1353.7,1420.61 1420.62,1369.38 1487.53,1295.04 
  1554.45,1200.39 1621.36,1089.11 1688.28,965.462 1755.2,834.192 1822.11,700.355 1889.03,569.089 1955.94,445.437 2022.86,334.155 2089.78,239.518 2156.69,165.16 
  2223.61,113.98 2290.52,88.0168 
  "/>
<polygon clip-path="url(#clip4200)" points="
2013.99,251.724 2280.76,251.724 2280.76,130.764 2013.99,130.764 
  " fill="#ffffff" fill-rule="evenodd" fill-opacity="1"/>
<polyline clip-path="url(#clip4200)" style="stroke:#000000; stroke-width:4; stroke-opacity:1; fill:none" points="
  2013.99,251.724 2280.76,251.724 2280.76,130.764 2013.99,130.764 2013.99,251.724 
  "/>
<polyline clip-path="url(#clip4200)" style="stroke:#009af9; stroke-width:4; stroke-opacity:1; fill:none" points="
  2037.99,191.244 2181.99,191.244 
  "/>
<g clip-path="url(#clip4200)">
<text style="fill:#000000; fill-opacity:1; font-family:Arial,Helvetica Neue,Helvetica,sans-serif; font-size:48px; text-anchor:start;" transform="rotate(0, 2205.99, 208.744)" x="2205.99" y="208.744">?</text>
</g>
</svg>
