<?xml version="1.0" encoding="utf-8"?>
<svg xmlns="http://www.w3.org/2000/svg" xmlns:xlink="http://www.w3.org/1999/xlink" width="600" height="400" viewBox="0 0 2400 1600">
<defs>
  <clipPath id="clip5200">
    <rect x="0" y="0" width="2400" height="1600"/>
  </clipPath>
</defs>
<polygon clip-path="url(#clip5200)" points="
0,1600 2400,1600 2400,0 0,0 
  " fill="#ffffff" fill-rule="evenodd" fill-opacity="1"/>
<defs>
  <clipPath id="clip5201">
    <rect x="480" y="0" width="1681" height="1600"/>
  </clipPath>
</defs>
<polygon clip-path="url(#clip5200)" points="
180.66,1487.47 2352.76,1487.47 2352.76,47.2441 180.66,47.2441 
  " fill="#ffffff" fill-rule="evenodd" fill-opacity="1"/>
<defs>
  <clipPath id="clip5202">
    <rect x="180" y="47" width="2173" height="1441"/>
  </clipPath>
</defs>
<polyline clip-path="url(#clip5202)" style="stroke:#000000; stroke-width:2; stroke-opacity:0.1; fill:none" points="
  242.135,1487.47 242.135,47.2441 
  "/>
<polyline clip-path="url(#clip5202)" style="stroke:#000000; stroke-width:2; stroke-opacity:0.1; fill:none" points="
  568.267,1487.47 568.267,47.2441 
  "/>
<polyline clip-path="url(#clip5202)" style="stroke:#000000; stroke-width:2; stroke-opacity:0.1; fill:none" points="
  894.398,1487.47 894.398,47.2441 
  "/>
<polyline clip-path="url(#clip5202)" style="stroke:#000000; stroke-width:2; stroke-opacity:0.1; fill:none" points="
  1220.53,1487.47 1220.53,47.2441 
  "/>
<polyline clip-path="url(#clip5202)" style="stroke:#000000; stroke-width:2; stroke-opacity:0.1; fill:none" points="
  1546.66,1487.47 1546.66,47.2441 
  "/>
<polyline clip-path="url(#clip5202)" style="stroke:#000000; stroke-width:2; stroke-opacity:0.1; fill:none" points="
  1872.79,1487.47 1872.79,47.2441 
  "/>
<polyline clip-path="url(#clip5202)" style="stroke:#000000; stroke-width:2; stroke-opacity:0.1; fill:none" points="
  2198.93,1487.47 2198.93,47.2441 
  "/>
<polyline clip-path="url(#clip5202)" style="stroke:#000000; stroke-width:2; stroke-opacity:0.1; fill:none" points="
  180.66,1446.71 2352.76,1446.71 
  "/>
<polyline clip-path="url(#clip5202)" style="stroke:#000000; stroke-width:2; stroke-opacity:0.1; fill:none" points="
  180.66,1107.04 2352.76,1107.04 
  "/>
<polyline clip-path="url(#clip5202)" style="stroke:#000000; stroke-width:2; stroke-opacity:0.1; fill:none" points="
  180.66,767.359 2352.76,767.359 
  "/>
<polyline clip-path="url(#clip5202)" style="stroke:#000000; stroke-width:2; stroke-opacity:0.1; fill:none" points="
  180.66,427.682 2352.76,427.682 
  "/>
<polyline clip-path="url(#clip5202)" style="stroke:#000000; stroke-width:2; stroke-opacity:0.1; fill:none" points="
  180.66,88.0053 2352.76,88.0053 
  "/>
<polyline clip-path="url(#clip5200)" style="stroke:#000000; stroke-width:4; stroke-opacity:1; fill:none" points="
  180.66,1487.47 2352.76,1487.47 
  "/>
<polyline clip-path="url(#clip5200)" style="stroke:#000000; stroke-width:4; stroke-opacity:1; fill:none" points="
  180.66,1487.47 180.66,47.2441 
  "/>
<polyline clip-path="url(#clip5200)" style="stroke:#000000; stroke-width:4; stroke-opacity:1; fill:none" points="
  242.135,1487.47 242.135,1465.87 
  "/>
<polyline clip-path="url(#clip5200)" style="stroke:#000000; stroke-width:4; stroke-opacity:1; fill:none" points="
  568.267,1487.47 568.267,1465.87 
  "/>
<polyline clip-path="url(#clip5200)" style="stroke:#000000; stroke-width:4; stroke-opacity:1; fill:none" points="
  894.398,1487.47 894.398,1465.87 
  "/>
<polyline clip-path="url(#clip5200)" style="stroke:#000000; stroke-width:4; stroke-opacity:1; fill:none" points="
  1220.53,1487.47 1220.53,1465.87 
  "/>
<polyline clip-path="url(#clip5200)" style="stroke:#000000; stroke-width:4; stroke-opacity:1; fill:none" points="
  1546.66,1487.47 1546.66,1465.87 
  "/>
<polyline clip-path="url(#clip5200)" style="stroke:#000000; stroke-width:4; stroke-opacity:1; fill:none" points="
  1872.79,1487.47 1872.79,1465.87 
  "/>
<polyline clip-path="url(#clip5200)" style="stroke:#000000; stroke-width:4; stroke-opacity:1; fill:none" points="
  2198.93,1487.47 2198.93,1465.87 
  "/>
<polyline clip-path="url(#clip5200)" style="stroke:#000000; stroke-width:4; stroke-opacity:1; fill:none" points="
  180.66,1446.71 213.242,1446.71 
  "/>
<polyline clip-path="url(#clip5200)" style="stroke:#000000; stroke-width:4; stroke-opacity:1; fill:none" points="
  180.66,1107.04 213.242,1107.04 
  "/>
<polyline clip-path="url(#clip5200)" style="stroke:#000000; stroke-width:4; stroke-opacity:1; fill:none" points="
  180.66,767.359 213.242,767.359 
  "/>
<polyline clip-path="url(#clip5200)" style="stroke:#000000; stroke-width:4; stroke-opacity:1; fill:none" points="
  180.66,427.682 213.242,427.682 
  "/>
<polyline clip-path="url(#clip5200)" style="stroke:#000000; stroke-width:4; stroke-opacity:1; fill:none" points="
  180.66,88.0053 213.242,88.0053 
  "/>
<g clip-path="url(#clip5200)">
<text style="fill:#000000; fill-opacity:1; font-family:Arial,Helvetica Neue,Helvetica,sans-serif; font-size:48px; text-anchor:middle;" transform="rotate(0, 242.135, 1541.47)" x="242.135" y="1541.47">0</text>
</g>
<g clip-path="url(#clip5200)">
<text style="fill:#000000; fill-opacity:1; font-family:Arial,Helvetica Neue,Helvetica,sans-serif; font-size:48px; text-anchor:middle;" transform="rotate(0, 568.267, 1541.47)" x="568.267" y="1541.47">2</text>
</g>
<g clip-path="url(#clip5200)">
<text style="fill:#000000; fill-opacity:1; font-family:Arial,Helvetica Neue,Helvetica,sans-serif; font-size:48px; text-anchor:middle;" transform="rotate(0, 894.398, 1541.47)" x="894.398" y="1541.47">4</text>
</g>
<g clip-path="url(#clip5200)">
<text style="fill:#000000; fill-opacity:1; font-family:Arial,Helvetica Neue,Helvetica,sans-serif; font-size:48px; text-anchor:middle;" transform="rotate(0, 1220.53, 1541.47)" x="1220.53" y="1541.47">6</text>
</g>
<g clip-path="url(#clip5200)">
<text style="fill:#000000; fill-opacity:1; font-family:Arial,Helvetica Neue,Helvetica,sans-serif; font-size:48px; text-anchor:middle;" transform="rotate(0, 1546.66, 1541.47)" x="1546.66" y="1541.47">8</text>
</g>
<g clip-path="url(#clip5200)">
<text style="fill:#000000; fill-opacity:1; font-family:Arial,Helvetica Neue,Helvetica,sans-serif; font-size:48px; text-anchor:middle;" transform="rotate(0, 1872.79, 1541.47)" x="1872.79" y="1541.47">10</text>
</g>
<g clip-path="url(#clip5200)">
<text style="fill:#000000; fill-opacity:1; font-family:Arial,Helvetica Neue,Helvetica,sans-serif; font-size:48px; text-anchor:middle;" transform="rotate(0, 2198.93, 1541.47)" x="2198.93" y="1541.47">12</text>
</g>
<g clip-path="url(#clip5200)">
<text style="fill:#000000; fill-opacity:1; font-family:Arial,Helvetica Neue,Helvetica,sans-serif; font-size:48px; text-anchor:end;" transform="rotate(0, 156.66, 1464.21)" x="156.66" y="1464.21">0.00</text>
</g>
<g clip-path="url(#clip5200)">
<text style="fill:#000000; fill-opacity:1; font-family:Arial,Helvetica Neue,Helvetica,sans-serif; font-size:48px; text-anchor:end;" transform="rotate(0, 156.66, 1124.54)" x="156.66" y="1124.54">0.25</text>
</g>
<g clip-path="url(#clip5200)">
<text style="fill:#000000; fill-opacity:1; font-family:Arial,Helvetica Neue,Helvetica,sans-serif; font-size:48px; text-anchor:end;" transform="rotate(0, 156.66, 784.859)" x="156.66" y="784.859">0.50</text>
</g>
<g clip-path="url(#clip5200)">
<text style="fill:#000000; fill-opacity:1; font-family:Arial,Helvetica Neue,Helvetica,sans-serif; font-size:48px; text-anchor:end;" transform="rotate(0, 156.66, 445.182)" x="156.66" y="445.182">0.75</text>
</g>
<g clip-path="url(#clip5200)">
<text style="fill:#000000; fill-opacity:1; font-family:Arial,Helvetica Neue,Helvetica,sans-serif; font-size:48px; text-anchor:end;" transform="rotate(0, 156.66, 105.505)" x="156.66" y="105.505">1.00</text>
</g>
<polyline clip-path="url(#clip5202)" style="stroke:#009af9; stroke-width:4; stroke-opacity:1; fill:none" points="
  242.135,1446.71 308.236,1446.71 374.338,1446.71 440.439,1446.71 506.541,1446.71 572.642,1446.71 638.744,1446.71 704.845,1446.71 770.947,1446.71 837.048,1446.71 
  903.15,1446.71 969.251,1446.71 1035.35,1446.71 1101.45,1446.71 1167.56,1446.71 1233.66,1446.71 1299.76,1446.71 1365.86,1446.71 1431.96,1446.71 1498.06,1446.71 
  1564.16,1446.71 1630.27,1446.71 1696.37,1446.71 1762.47,1446.71 1828.57,1446.71 1894.67,1446.71 1960.77,1446.71 2026.88,1446.71 2092.98,1446.71 2159.08,1446.71 
  2225.18,1446.71 2291.28,1446.71 
  "/>
<polygon clip-path="url(#clip5200)" points="
2013.99,251.724 2280.76,251.724 2280.76,130.764 2013.99,130.764 
  " fill="#ffffff" fill-rule="evenodd" fill-opacity="1"/>
<polyline clip-path="url(#clip5200)" style="stroke:#000000; stroke-width:4; stroke-opacity:1; fill:none" points="
  2013.99,251.724 2280.76,251.724 2280.76,130.764 2013.99,130.764 2013.99,251.724 
  "/>
<polyline clip-path="url(#clip5200)" style="stroke:#009af9; stroke-width:4; stroke-opacity:1; fill:none" points="
  2037.99,191.244 2181.99,191.244 
  "/>
<g clip-path="url(#clip5200)">
<text style="fill:#000000; fill-opacity:1; font-family:Arial,Helvetica Neue,Helvetica,sans-serif; font-size:48px; text-anchor:start;" transform="rotate(0, 2205.99, 208.744)" x="2205.99" y="208.744">?</text>
</g>
</svg>
