<?xml version="1.0" encoding="utf-8"?>
<svg xmlns="http://www.w3.org/2000/svg" xmlns:xlink="http://www.w3.org/1999/xlink" width="600" height="400" viewBox="0 0 2400 1600">
<defs>
  <clipPath id="clip3700">
    <rect x="0" y="0" width="2400" height="1600"/>
  </clipPath>
</defs>
<polygon clip-path="url(#clip3700)" points="
0,1600 2400,1600 2400,0 0,0 
  " fill="#ffffff" fill-rule="evenodd" fill-opacity="1"/>
<defs>
  <clipPath id="clip3701">
    <rect x="480" y="0" width="1681" height="1600"/>
  </clipPath>
</defs>
<polygon clip-path="url(#clip3700)" points="
86.9921,1521.01 2352.76,1521.01 2352.76,47.2441 86.9921,47.2441 
  " fill="#ffffff" fill-rule="evenodd" fill-opacity="1"/>
<defs>
  <clipPath id="clip3702">
    <rect x="86" y="47" width="2267" height="1475"/>
  </clipPath>
</defs>
<polyline clip-path="url(#clip3702)" style="stroke:#000000; stroke-width:2; stroke-opacity:0.1; fill:none" points="
  151.118,1521.01 151.118,47.2441 
  "/>
<polyline clip-path="url(#clip3702)" style="stroke:#000000; stroke-width:2; stroke-opacity:0.1; fill:none" points="
  490.405,1521.01 490.405,47.2441 
  "/>
<polyline clip-path="url(#clip3702)" style="stroke:#000000; stroke-width:2; stroke-opacity:0.1; fill:none" points="
  829.693,1521.01 829.693,47.2441 
  "/>
<polyline clip-path="url(#clip3702)" style="stroke:#000000; stroke-width:2; stroke-opacity:0.1; fill:none" points="
  1168.98,1521.01 1168.98,47.2441 
  "/>
<polyline clip-path="url(#clip3702)" style="stroke:#000000; stroke-width:2; stroke-opacity:0.1; fill:none" points="
  1508.27,1521.01 1508.27,47.2441 
  "/>
<polyline clip-path="url(#clip3702)" style="stroke:#000000; stroke-width:2; stroke-opacity:0.1; fill:none" points="
  1847.56,1521.01 1847.56,47.2441 
  "/>
<polyline clip-path="url(#clip3702)" style="stroke:#000000; stroke-width:2; stroke-opacity:0.1; fill:none" points="
  2186.84,1521.01 2186.84,47.2441 
  "/>
<polyline clip-path="url(#clip3702)" style="stroke:#000000; stroke-width:2; stroke-opacity:0.1; fill:none" points="
  86.9921,1315.32 2352.76,1315.32 
  "/>
<polyline clip-path="url(#clip3702)" style="stroke:#000000; stroke-width:2; stroke-opacity:0.1; fill:none" points="
  86.9921,1049.76 2352.76,1049.76 
  "/>
<polyline clip-path="url(#clip3702)" style="stroke:#000000; stroke-width:2; stroke-opacity:0.1; fill:none" points="
  86.9921,784.194 2352.76,784.194 
  "/>
<polyline clip-path="url(#clip3702)" style="stroke:#000000; stroke-width:2; stroke-opacity:0.1; fill:none" points="
  86.9921,518.632 2352.76,518.632 
  "/>
<polyline clip-path="url(#clip3702)" style="stroke:#000000; stroke-width:2; stroke-opacity:0.1; fill:none" points="
  86.9921,253.07 2352.76,253.07 
  "/>
<polyline clip-path="url(#clip3700)" style="stroke:#000000; stroke-width:4; stroke-opacity:1; fill:none" points="
  86.9921,1521.01 2352.76,1521.01 
  "/>
<polyline clip-path="url(#clip3700)" style="stroke:#000000; stroke-width:4; stroke-opacity:1; fill:none" points="
  86.9921,1521.01 86.9921,47.2441 
  "/>
<polyline clip-path="url(#clip3700)" style="stroke:#000000; stroke-width:4; stroke-opacity:1; fill:none" points="
  151.118,1521.01 151.118,1498.9 
  "/>
<polyline clip-path="url(#clip3700)" style="stroke:#000000; stroke-width:4; stroke-opacity:1; fill:none" points="
  490.405,1521.01 490.405,1498.9 
  "/>
<polyline clip-path="url(#clip3700)" style="stroke:#000000; stroke-width:4; stroke-opacity:1; fill:none" points="
  829.693,1521.01 829.693,1498.9 
  "/>
<polyline clip-path="url(#clip3700)" style="stroke:#000000; stroke-width:4; stroke-opacity:1; fill:none" points="
  1168.98,1521.01 1168.98,1498.9 
  "/>
<polyline clip-path="url(#clip3700)" style="stroke:#000000; stroke-width:4; stroke-opacity:1; fill:none" points="
  1508.27,1521.01 1508.27,1498.9 
  "/>
<polyline clip-path="url(#clip3700)" style="stroke:#000000; stroke-width:4; stroke-opacity:1; fill:none" points="
  1847.56,1521.01 1847.56,1498.9 
  "/>
<polyline clip-path="url(#clip3700)" style="stroke:#000000; stroke-width:4; stroke-opacity:1; fill:none" points="
  2186.84,1521.01 2186.84,1498.9 
  "/>
<polyline clip-path="url(#clip3700)" style="stroke:#000000; stroke-width:4; stroke-opacity:1; fill:none" points="
  86.9921,1315.32 120.979,1315.32 
  "/>
<polyline clip-path="url(#clip3700)" style="stroke:#000000; stroke-width:4; stroke-opacity:1; fill:none" points="
  86.9921,1049.76 120.979,1049.76 
  "/>
<polyline clip-path="url(#clip3700)" style="stroke:#000000; stroke-width:4; stroke-opacity:1; fill:none" points="
  86.9921,784.194 120.979,784.194 
  "/>
<polyline clip-path="url(#clip3700)" style="stroke:#000000; stroke-width:4; stroke-opacity:1; fill:none" points="
  86.9921,518.632 120.979,518.632 
  "/>
<polyline clip-path="url(#clip3700)" style="stroke:#000000; stroke-width:4; stroke-opacity:1; fill:none" points="
  86.9921,253.07 120.979,253.07 
  "/>
<g clip-path="url(#clip3700)">
<text style="fill:#000000; fill-opacity:1; font-family:Arial,Helvetica Neue,Helvetica,sans-serif; font-size:48px; text-anchor:middle;" transform="rotate(0, 151.118, 1575.01)" x="151.118" y="1575.01">0</text>
</g>
<g clip-path="url(#clip3700)">
<text style="fill:#000000; fill-opacity:1; font-family:Arial,Helvetica Neue,Helvetica,sans-serif; font-size:48px; text-anchor:middle;" transform="rotate(0, 490.405, 1575.01)" x="490.405" y="1575.01">1</text>
</g>
<g clip-path="url(#clip3700)">
<text style="fill:#000000; fill-opacity:1; font-family:Arial,Helvetica Neue,Helvetica,sans-serif; font-size:48px; text-anchor:middle;" transform="rotate(0, 829.693, 1575.01)" x="829.693" y="1575.01">2</text>
</g>
<g clip-path="url(#clip3700)">
<text style="fill:#000000; fill-opacity:1; font-family:Arial,Helvetica Neue,Helvetica,sans-serif; font-size:48px; text-anchor:middle;" transform="rotate(0, 1168.98, 1575.01)" x="1168.98" y="1575.01">3</text>
</g>
<g clip-path="url(#clip3700)">
<text style="fill:#000000; fill-opacity:1; font-family:Arial,Helvetica Neue,Helvetica,sans-serif; font-size:48px; text-anchor:middle;" transform="rotate(0, 1508.27, 1575.01)" x="1508.27" y="1575.01">4</text>
</g>
<g clip-path="url(#clip3700)">
<text style="fill:#000000; fill-opacity:1; font-family:Arial,Helvetica Neue,Helvetica,sans-serif; font-size:48px; text-anchor:middle;" transform="rotate(0, 1847.56, 1575.01)" x="1847.56" y="1575.01">5</text>
</g>
<g clip-path="url(#clip3700)">
<text style="fill:#000000; fill-opacity:1; font-family:Arial,Helvetica Neue,Helvetica,sans-serif; font-size:48px; text-anchor:middle;" transform="rotate(0, 2186.84, 1575.01)" x="2186.84" y="1575.01">6</text>
</g>
<g clip-path="url(#clip3700)">
<text style="fill:#000000; fill-opacity:1; font-family:Arial,Helvetica Neue,Helvetica,sans-serif; font-size:48px; text-anchor:end;" transform="rotate(0, 62.9921, 1332.82)" x="62.9921" y="1332.82">-0.04</text>
</g>
<g clip-path="url(#clip3700)">
<text style="fill:#000000; fill-opacity:1; font-family:Arial,Helvetica Neue,Helvetica,sans-serif; font-size:48px; text-anchor:end;" transform="rotate(0, 62.9921, 1067.26)" x="62.9921" y="1067.26">-0.02</text>
</g>
<g clip-path="url(#clip3700)">
<text style="fill:#000000; fill-opacity:1; font-family:Arial,Helvetica Neue,Helvetica,sans-serif; font-size:48px; text-anchor:end;" transform="rotate(0, 62.9921, 801.694)" x="62.9921" y="801.694">0.00</text>
</g>
<g clip-path="url(#clip3700)">
<text style="fill:#000000; fill-opacity:1; font-family:Arial,Helvetica Neue,Helvetica,sans-serif; font-size:48px; text-anchor:end;" transform="rotate(0, 62.9921, 536.132)" x="62.9921" y="536.132">0.02</text>
</g>
<g clip-path="url(#clip3700)">
<text style="fill:#000000; fill-opacity:1; font-family:Arial,Helvetica Neue,Helvetica,sans-serif; font-size:48px; text-anchor:end;" transform="rotate(0, 62.9921, 270.57)" x="62.9921" y="270.57">0.04</text>
</g>
<polyline clip-path="url(#clip3702)" style="stroke:#009af9; stroke-width:4; stroke-opacity:1; fill:none" points="
  151.118,88.9544 161.665,92.2407 180.165,113.75 202.071,164.305 228.628,259.132 258.013,400.279 290.065,585.768 323.978,800.403 359.528,1023.35 396.552,1228.13 
  435.131,1386.69 475.474,1471.59 518.154,1458.97 564.116,1330.4 612.075,1093.75 657.837,811.605 702.935,528.608 747.445,291.837 792.257,136.159 837.956,89.8523 
  885.765,171.322 936.681,386.173 985.715,675.25 1032.73,973.803 1078.78,1232.58 1124.6,1411.03 1170.97,1479.3 1219.04,1418 1270.18,1218.98 1320.31,931.385 
  1367.78,629.484 1414.25,361.808 1460.27,171.894 1506.72,90.4243 1554.68,137.842 1605.63,323.857 1656.29,607.779 1703.93,910.57 1750.58,1184.2 1796.63,1382.97 
  1843.07,1475.61 1890.85,1440.6 1941.53,1266.99 1992.56,987.676 2040.34,684.729 2087.12,406.1 2133.18,199.248 2179.57,96.0761 2227.18,119.149 2277.56,280.49 
  2288.63,331.927 
  "/>
<circle clip-path="url(#clip3702)" style="fill:#000000; stroke:none; fill-opacity:1" cx="151.118" cy="88.9544" r="18"/>
<circle clip-path="url(#clip3702)" style="fill:#e26f46; stroke:none; fill-opacity:1" cx="151.118" cy="88.9544" r="14"/>
<circle clip-path="url(#clip3702)" style="fill:#000000; stroke:none; fill-opacity:1" cx="161.665" cy="92.2407" r="18"/>
<circle clip-path="url(#clip3702)" style="fill:#e26f46; stroke:none; fill-opacity:1" cx="161.665" cy="92.2407" r="14"/>
<circle clip-path="url(#clip3702)" style="fill:#000000; stroke:none; fill-opacity:1" cx="180.165" cy="113.75" r="18"/>
<circle clip-path="url(#clip3702)" style="fill:#e26f46; stroke:none; fill-opacity:1" cx="180.165" cy="113.75" r="14"/>
<circle clip-path="url(#clip3702)" style="fill:#000000; stroke:none; fill-opacity:1" cx="202.071" cy="164.305" r="18"/>
<circle clip-path="url(#clip3702)" style="fill:#e26f46; stroke:none; fill-opacity:1" cx="202.071" cy="164.305" r="14"/>
<circle clip-path="url(#clip3702)" style="fill:#000000; stroke:none; fill-opacity:1" cx="228.628" cy="259.132" r="18"/>
<circle clip-path="url(#clip3702)" style="fill:#e26f46; stroke:none; fill-opacity:1" cx="228.628" cy="259.132" r="14"/>
<circle clip-path="url(#clip3702)" style="fill:#000000; stroke:none; fill-opacity:1" cx="258.013" cy="400.279" r="18"/>
<circle clip-path="url(#clip3702)" style="fill:#e26f46; stroke:none; fill-opacity:1" cx="258.013" cy="400.279" r="14"/>
<circle clip-path="url(#clip3702)" style="fill:#000000; stroke:none; fill-opacity:1" cx="290.065" cy="585.768" r="18"/>
<circle clip-path="url(#clip3702)" style="fill:#e26f46; stroke:none; fill-opacity:1" cx="290.065" cy="585.768" r="14"/>
<circle clip-path="url(#clip3702)" style="fill:#000000; stroke:none; fill-opacity:1" cx="323.978" cy="800.403" r="18"/>
<circle clip-path="url(#clip3702)" style="fill:#e26f46; stroke:none; fill-opacity:1" cx="323.978" cy="800.403" r="14"/>
<circle clip-path="url(#clip3702)" style="fill:#000000; stroke:none; fill-opacity:1" cx="359.528" cy="1023.35" r="18"/>
<circle clip-path="url(#clip3702)" style="fill:#e26f46; stroke:none; fill-opacity:1" cx="359.528" cy="1023.35" r="14"/>
<circle clip-path="url(#clip3702)" style="fill:#000000; stroke:none; fill-opacity:1" cx="396.552" cy="1228.13" r="18"/>
<circle clip-path="url(#clip3702)" style="fill:#e26f46; stroke:none; fill-opacity:1" cx="396.552" cy="1228.13" r="14"/>
<circle clip-path="url(#clip3702)" style="fill:#000000; stroke:none; fill-opacity:1" cx="435.131" cy="1386.69" r="18"/>
<circle clip-path="url(#clip3702)" style="fill:#e26f46; stroke:none; fill-opacity:1" cx="435.131" cy="1386.69" r="14"/>
<circle clip-path="url(#clip3702)" style="fill:#000000; stroke:none; fill-opacity:1" cx="475.474" cy="1471.59" r="18"/>
<circle clip-path="url(#clip3702)" style="fill:#e26f46; stroke:none; fill-opacity:1" cx="475.474" cy="1471.59" r="14"/>
<circle clip-path="url(#clip3702)" style="fill:#000000; stroke:none; fill-opacity:1" cx="518.154" cy="1458.97" r="18"/>
<circle clip-path="url(#clip3702)" style="fill:#e26f46; stroke:none; fill-opacity:1" cx="518.154" cy="1458.97" r="14"/>
<circle clip-path="url(#clip3702)" style="fill:#000000; stroke:none; fill-opacity:1" cx="564.116" cy="1330.4" r="18"/>
<circle clip-path="url(#clip3702)" style="fill:#e26f46; stroke:none; fill-opacity:1" cx="564.116" cy="1330.4" r="14"/>
<circle clip-path="url(#clip3702)" style="fill:#000000; stroke:none; fill-opacity:1" cx="612.075" cy="1093.75" r="18"/>
<circle clip-path="url(#clip3702)" style="fill:#e26f46; stroke:none; fill-opacity:1" cx="612.075" cy="1093.75" r="14"/>
<circle clip-path="url(#clip3702)" style="fill:#000000; stroke:none; fill-opacity:1" cx="657.837" cy="811.607" r="18"/>
<circle clip-path="url(#clip3702)" style="fill:#e26f46; stroke:none; fill-opacity:1" cx="657.837" cy="811.607" r="14"/>
<circle clip-path="url(#clip3702)" style="fill:#000000; stroke:none; fill-opacity:1" cx="702.935" cy="528.61" r="18"/>
<circle clip-path="url(#clip3702)" style="fill:#e26f46; stroke:none; fill-opacity:1" cx="702.935" cy="528.61" r="14"/>
<circle clip-path="url(#clip3702)" style="fill:#000000; stroke:none; fill-opacity:1" cx="747.445" cy="291.838" r="18"/>
<circle clip-path="url(#clip3702)" style="fill:#e26f46; stroke:none; fill-opacity:1" cx="747.445" cy="291.838" r="14"/>
<circle clip-path="url(#clip3702)" style="fill:#000000; stroke:none; fill-opacity:1" cx="792.257" cy="136.159" r="18"/>
<circle clip-path="url(#clip3702)" style="fill:#e26f46; stroke:none; fill-opacity:1" cx="792.257" cy="136.159" r="14"/>
<circle clip-path="url(#clip3702)" style="fill:#000000; stroke:none; fill-opacity:1" cx="837.956" cy="89.8517" r="18"/>
<circle clip-path="url(#clip3702)" style="fill:#e26f46; stroke:none; fill-opacity:1" cx="837.956" cy="89.8517" r="14"/>
<circle clip-path="url(#clip3702)" style="fill:#000000; stroke:none; fill-opacity:1" cx="885.765" cy="171.32" r="18"/>
<circle clip-path="url(#clip3702)" style="fill:#e26f46; stroke:none; fill-opacity:1" cx="885.765" cy="171.32" r="14"/>
<circle clip-path="url(#clip3702)" style="fill:#000000; stroke:none; fill-opacity:1" cx="936.681" cy="386.169" r="18"/>
<circle clip-path="url(#clip3702)" style="fill:#e26f46; stroke:none; fill-opacity:1" cx="936.681" cy="386.169" r="14"/>
<circle clip-path="url(#clip3702)" style="fill:#000000; stroke:none; fill-opacity:1" cx="985.715" cy="675.245" r="18"/>
<circle clip-path="url(#clip3702)" style="fill:#e26f46; stroke:none; fill-opacity:1" cx="985.715" cy="675.245" r="14"/>
<circle clip-path="url(#clip3702)" style="fill:#000000; stroke:none; fill-opacity:1" cx="1032.73" cy="973.798" r="18"/>
<circle clip-path="url(#clip3702)" style="fill:#e26f46; stroke:none; fill-opacity:1" cx="1032.73" cy="973.798" r="14"/>
<circle clip-path="url(#clip3702)" style="fill:#000000; stroke:none; fill-opacity:1" cx="1078.78" cy="1232.57" r="18"/>
<circle clip-path="url(#clip3702)" style="fill:#e26f46; stroke:none; fill-opacity:1" cx="1078.78" cy="1232.57" r="14"/>
<circle clip-path="url(#clip3702)" style="fill:#000000; stroke:none; fill-opacity:1" cx="1124.6" cy="1411.03" r="18"/>
<circle clip-path="url(#clip3702)" style="fill:#e26f46; stroke:none; fill-opacity:1" cx="1124.6" cy="1411.03" r="14"/>
<circle clip-path="url(#clip3702)" style="fill:#000000; stroke:none; fill-opacity:1" cx="1170.97" cy="1479.3" r="18"/>
<circle clip-path="url(#clip3702)" style="fill:#e26f46; stroke:none; fill-opacity:1" cx="1170.97" cy="1479.3" r="14"/>
<circle clip-path="url(#clip3702)" style="fill:#000000; stroke:none; fill-opacity:1" cx="1219.04" cy="1418" r="18"/>
<circle clip-path="url(#clip3702)" style="fill:#e26f46; stroke:none; fill-opacity:1" cx="1219.04" cy="1418" r="14"/>
<circle clip-path="url(#clip3702)" style="fill:#000000; stroke:none; fill-opacity:1" cx="1270.18" cy="1218.98" r="18"/>
<circle clip-path="url(#clip3702)" style="fill:#e26f46; stroke:none; fill-opacity:1" cx="1270.18" cy="1218.98" r="14"/>
<circle clip-path="url(#clip3702)" style="fill:#000000; stroke:none; fill-opacity:1" cx="1320.31" cy="931.394" r="18"/>
<circle clip-path="url(#clip3702)" style="fill:#e26f46; stroke:none; fill-opacity:1" cx="1320.31" cy="931.394" r="14"/>
<circle clip-path="url(#clip3702)" style="fill:#000000; stroke:none; fill-opacity:1" cx="1367.78" cy="629.493" r="18"/>
<circle clip-path="url(#clip3702)" style="fill:#e26f46; stroke:none; fill-opacity:1" cx="1367.78" cy="629.493" r="14"/>
<circle clip-path="url(#clip3702)" style="fill:#000000; stroke:none; fill-opacity:1" cx="1414.25" cy="361.816" r="18"/>
<circle clip-path="url(#clip3702)" style="fill:#e26f46; stroke:none; fill-opacity:1" cx="1414.25" cy="361.816" r="14"/>
<circle clip-path="url(#clip3702)" style="fill:#000000; stroke:none; fill-opacity:1" cx="1460.27" cy="171.898" r="18"/>
<circle clip-path="url(#clip3702)" style="fill:#e26f46; stroke:none; fill-opacity:1" cx="1460.27" cy="171.898" r="14"/>
<circle clip-path="url(#clip3702)" style="fill:#000000; stroke:none; fill-opacity:1" cx="1506.72" cy="90.4241" r="18"/>
<circle clip-path="url(#clip3702)" style="fill:#e26f46; stroke:none; fill-opacity:1" cx="1506.72" cy="90.4241" r="14"/>
<circle clip-path="url(#clip3702)" style="fill:#000000; stroke:none; fill-opacity:1" cx="1554.68" cy="137.837" r="18"/>
<circle clip-path="url(#clip3702)" style="fill:#e26f46; stroke:none; fill-opacity:1" cx="1554.68" cy="137.837" r="14"/>
<circle clip-path="url(#clip3702)" style="fill:#000000; stroke:none; fill-opacity:1" cx="1605.63" cy="323.847" r="18"/>
<circle clip-path="url(#clip3702)" style="fill:#e26f46; stroke:none; fill-opacity:1" cx="1605.63" cy="323.847" r="14"/>
<circle clip-path="url(#clip3702)" style="fill:#000000; stroke:none; fill-opacity:1" cx="1656.29" cy="607.766" r="18"/>
<circle clip-path="url(#clip3702)" style="fill:#e26f46; stroke:none; fill-opacity:1" cx="1656.29" cy="607.766" r="14"/>
<circle clip-path="url(#clip3702)" style="fill:#000000; stroke:none; fill-opacity:1" cx="1703.93" cy="910.558" r="18"/>
<circle clip-path="url(#clip3702)" style="fill:#e26f46; stroke:none; fill-opacity:1" cx="1703.93" cy="910.558" r="14"/>
<circle clip-path="url(#clip3702)" style="fill:#000000; stroke:none; fill-opacity:1" cx="1750.58" cy="1184.19" r="18"/>
<circle clip-path="url(#clip3702)" style="fill:#e26f46; stroke:none; fill-opacity:1" cx="1750.58" cy="1184.19" r="14"/>
<circle clip-path="url(#clip3702)" style="fill:#000000; stroke:none; fill-opacity:1" cx="1796.63" cy="1382.97" r="18"/>
<circle clip-path="url(#clip3702)" style="fill:#e26f46; stroke:none; fill-opacity:1" cx="1796.63" cy="1382.97" r="14"/>
<circle clip-path="url(#clip3702)" style="fill:#000000; stroke:none; fill-opacity:1" cx="1843.07" cy="1475.61" r="18"/>
<circle clip-path="url(#clip3702)" style="fill:#e26f46; stroke:none; fill-opacity:1" cx="1843.07" cy="1475.61" r="14"/>
<circle clip-path="url(#clip3702)" style="fill:#000000; stroke:none; fill-opacity:1" cx="1890.85" cy="1440.61" r="18"/>
<circle clip-path="url(#clip3702)" style="fill:#e26f46; stroke:none; fill-opacity:1" cx="1890.85" cy="1440.61" r="14"/>
<circle clip-path="url(#clip3702)" style="fill:#000000; stroke:none; fill-opacity:1" cx="1941.53" cy="1267" r="18"/>
<circle clip-path="url(#clip3702)" style="fill:#e26f46; stroke:none; fill-opacity:1" cx="1941.53" cy="1267" r="14"/>
<circle clip-path="url(#clip3702)" style="fill:#000000; stroke:none; fill-opacity:1" cx="1992.56" cy="987.692" r="18"/>
<circle clip-path="url(#clip3702)" style="fill:#e26f46; stroke:none; fill-opacity:1" cx="1992.56" cy="987.692" r="14"/>
<circle clip-path="url(#clip3702)" style="fill:#000000; stroke:none; fill-opacity:1" cx="2040.34" cy="684.746" r="18"/>
<circle clip-path="url(#clip3702)" style="fill:#e26f46; stroke:none; fill-opacity:1" cx="2040.34" cy="684.746" r="14"/>
<circle clip-path="url(#clip3702)" style="fill:#000000; stroke:none; fill-opacity:1" cx="2087.12" cy="406.114" r="18"/>
<circle clip-path="url(#clip3702)" style="fill:#e26f46; stroke:none; fill-opacity:1" cx="2087.12" cy="406.114" r="14"/>
<circle clip-path="url(#clip3702)" style="fill:#000000; stroke:none; fill-opacity:1" cx="2133.18" cy="199.257" r="18"/>
<circle clip-path="url(#clip3702)" style="fill:#e26f46; stroke:none; fill-opacity:1" cx="2133.18" cy="199.257" r="14"/>
<circle clip-path="url(#clip3702)" style="fill:#000000; stroke:none; fill-opacity:1" cx="2179.57" cy="96.0775" r="18"/>
<circle clip-path="url(#clip3702)" style="fill:#e26f46; stroke:none; fill-opacity:1" cx="2179.57" cy="96.0775" r="14"/>
<circle clip-path="url(#clip3702)" style="fill:#000000; stroke:none; fill-opacity:1" cx="2227.18" cy="119.143" r="18"/>
<circle clip-path="url(#clip3702)" style="fill:#e26f46; stroke:none; fill-opacity:1" cx="2227.18" cy="119.143" r="14"/>
<circle clip-path="url(#clip3702)" style="fill:#000000; stroke:none; fill-opacity:1" cx="2277.56" cy="280.475" r="18"/>
<circle clip-path="url(#clip3702)" style="fill:#e26f46; stroke:none; fill-opacity:1" cx="2277.56" cy="280.475" r="14"/>
<circle clip-path="url(#clip3702)" style="fill:#000000; stroke:none; fill-opacity:1" cx="2288.63" cy="331.911" r="18"/>
<circle clip-path="url(#clip3702)" style="fill:#e26f46; stroke:none; fill-opacity:1" cx="2288.63" cy="331.911" r="14"/>
<polygon clip-path="url(#clip3700)" points="
1824.15,312.204 2280.76,312.204 2280.76,130.764 1824.15,130.764 
  " fill="#ffffff" fill-rule="evenodd" fill-opacity="1"/>
<polyline clip-path="url(#clip3700)" style="stroke:#000000; stroke-width:4; stroke-opacity:1; fill:none" points="
  1824.15,312.204 2280.76,312.204 2280.76,130.764 1824.15,130.764 1824.15,312.204 
  "/>
<polyline clip-path="url(#clip3700)" style="stroke:#009af9; stroke-width:4; stroke-opacity:1; fill:none" points="
  1848.15,191.244 1992.15,191.244 
  "/>
<g clip-path="url(#clip3700)">
<text style="fill:#000000; fill-opacity:1; font-family:Arial,Helvetica Neue,Helvetica,sans-serif; font-size:48px; text-anchor:start;" transform="rotate(0, 2016.15, 208.744)" x="2016.15" y="208.744">Numerical</text>
</g>
<circle clip-path="url(#clip3700)" style="fill:#000000; stroke:none; fill-opacity:1" cx="1932.15" cy="251.724" r="25"/>
<circle clip-path="url(#clip3700)" style="fill:#e26f46; stroke:none; fill-opacity:1" cx="1932.15" cy="251.724" r="21"/>
<g clip-path="url(#clip3700)">
<text style="fill:#000000; fill-opacity:1; font-family:Arial,Helvetica Neue,Helvetica,sans-serif; font-size:48px; text-anchor:start;" transform="rotate(0, 2016.15, 269.224)" x="2016.15" y="269.224">Analytic</text>
</g>
</svg>
