<?xml version="1.0" encoding="utf-8"?>
<svg xmlns="http://www.w3.org/2000/svg" xmlns:xlink="http://www.w3.org/1999/xlink" width="600" height="400" viewBox="0 0 2400 1600">
<defs>
  <clipPath id="clip2300">
    <rect x="0" y="0" width="2400" height="1600"/>
  </clipPath>
</defs>
<polygon clip-path="url(#clip2300)" points="
0,1600 2400,1600 2400,0 0,0 
  " fill="#ffffff" fill-rule="evenodd" fill-opacity="1"/>
<defs>
  <clipPath id="clip2301">
    <rect x="480" y="0" width="1681" height="1600"/>
  </clipPath>
</defs>
<polygon clip-path="url(#clip2300)" points="
208.77,1487.47 2352.76,1487.47 2352.76,47.2441 208.77,47.2441 
  " fill="#ffffff" fill-rule="evenodd" fill-opacity="1"/>
<defs>
  <clipPath id="clip2302">
    <rect x="208" y="47" width="2145" height="1441"/>
  </clipPath>
</defs>
<polyline clip-path="url(#clip2302)" style="stroke:#000000; stroke-width:2; stroke-opacity:0.1; fill:none" points="
  269.449,1487.47 269.449,47.2441 
  "/>
<polyline clip-path="url(#clip2302)" style="stroke:#000000; stroke-width:2; stroke-opacity:0.1; fill:none" points="
  590.501,1487.47 590.501,47.2441 
  "/>
<polyline clip-path="url(#clip2302)" style="stroke:#000000; stroke-width:2; stroke-opacity:0.1; fill:none" points="
  911.553,1487.47 911.553,47.2441 
  "/>
<polyline clip-path="url(#clip2302)" style="stroke:#000000; stroke-width:2; stroke-opacity:0.1; fill:none" points="
  1232.61,1487.47 1232.61,47.2441 
  "/>
<polyline clip-path="url(#clip2302)" style="stroke:#000000; stroke-width:2; stroke-opacity:0.1; fill:none" points="
  1553.66,1487.47 1553.66,47.2441 
  "/>
<polyline clip-path="url(#clip2302)" style="stroke:#000000; stroke-width:2; stroke-opacity:0.1; fill:none" points="
  1874.71,1487.47 1874.71,47.2441 
  "/>
<polyline clip-path="url(#clip2302)" style="stroke:#000000; stroke-width:2; stroke-opacity:0.1; fill:none" points="
  2195.76,1487.47 2195.76,47.2441 
  "/>
<polyline clip-path="url(#clip2302)" style="stroke:#000000; stroke-width:2; stroke-opacity:0.1; fill:none" points="
  208.77,1286.46 2352.76,1286.46 
  "/>
<polyline clip-path="url(#clip2302)" style="stroke:#000000; stroke-width:2; stroke-opacity:0.1; fill:none" points="
  208.77,1026.94 2352.76,1026.94 
  "/>
<polyline clip-path="url(#clip2302)" style="stroke:#000000; stroke-width:2; stroke-opacity:0.1; fill:none" points="
  208.77,767.425 2352.76,767.425 
  "/>
<polyline clip-path="url(#clip2302)" style="stroke:#000000; stroke-width:2; stroke-opacity:0.1; fill:none" points="
  208.77,507.906 2352.76,507.906 
  "/>
<polyline clip-path="url(#clip2302)" style="stroke:#000000; stroke-width:2; stroke-opacity:0.1; fill:none" points="
  208.77,248.387 2352.76,248.387 
  "/>
<polyline clip-path="url(#clip2300)" style="stroke:#000000; stroke-width:4; stroke-opacity:1; fill:none" points="
  208.77,1487.47 2352.76,1487.47 
  "/>
<polyline clip-path="url(#clip2300)" style="stroke:#000000; stroke-width:4; stroke-opacity:1; fill:none" points="
  208.77,1487.47 208.77,47.2441 
  "/>
<polyline clip-path="url(#clip2300)" style="stroke:#000000; stroke-width:4; stroke-opacity:1; fill:none" points="
  269.449,1487.47 269.449,1465.87 
  "/>
<polyline clip-path="url(#clip2300)" style="stroke:#000000; stroke-width:4; stroke-opacity:1; fill:none" points="
  590.501,1487.47 590.501,1465.87 
  "/>
<polyline clip-path="url(#clip2300)" style="stroke:#000000; stroke-width:4; stroke-opacity:1; fill:none" points="
  911.553,1487.47 911.553,1465.87 
  "/>
<polyline clip-path="url(#clip2300)" style="stroke:#000000; stroke-width:4; stroke-opacity:1; fill:none" points="
  1232.61,1487.47 1232.61,1465.87 
  "/>
<polyline clip-path="url(#clip2300)" style="stroke:#000000; stroke-width:4; stroke-opacity:1; fill:none" points="
  1553.66,1487.47 1553.66,1465.87 
  "/>
<polyline clip-path="url(#clip2300)" style="stroke:#000000; stroke-width:4; stroke-opacity:1; fill:none" points="
  1874.71,1487.47 1874.71,1465.87 
  "/>
<polyline clip-path="url(#clip2300)" style="stroke:#000000; stroke-width:4; stroke-opacity:1; fill:none" points="
  2195.76,1487.47 2195.76,1465.87 
  "/>
<polyline clip-path="url(#clip2300)" style="stroke:#000000; stroke-width:4; stroke-opacity:1; fill:none" points="
  208.77,1286.46 240.93,1286.46 
  "/>
<polyline clip-path="url(#clip2300)" style="stroke:#000000; stroke-width:4; stroke-opacity:1; fill:none" points="
  208.77,1026.94 240.93,1026.94 
  "/>
<polyline clip-path="url(#clip2300)" style="stroke:#000000; stroke-width:4; stroke-opacity:1; fill:none" points="
  208.77,767.425 240.93,767.425 
  "/>
<polyline clip-path="url(#clip2300)" style="stroke:#000000; stroke-width:4; stroke-opacity:1; fill:none" points="
  208.77,507.906 240.93,507.906 
  "/>
<polyline clip-path="url(#clip2300)" style="stroke:#000000; stroke-width:4; stroke-opacity:1; fill:none" points="
  208.77,248.387 240.93,248.387 
  "/>
<g clip-path="url(#clip2300)">
<text style="fill:#000000; fill-opacity:1; font-family:Arial,Helvetica Neue,Helvetica,sans-serif; font-size:48px; text-anchor:middle;" transform="rotate(0, 269.449, 1541.47)" x="269.449" y="1541.47">0</text>
</g>
<g clip-path="url(#clip2300)">
<text style="fill:#000000; fill-opacity:1; font-family:Arial,Helvetica Neue,Helvetica,sans-serif; font-size:48px; text-anchor:middle;" transform="rotate(0, 590.501, 1541.47)" x="590.501" y="1541.47">1</text>
</g>
<g clip-path="url(#clip2300)">
<text style="fill:#000000; fill-opacity:1; font-family:Arial,Helvetica Neue,Helvetica,sans-serif; font-size:48px; text-anchor:middle;" transform="rotate(0, 911.553, 1541.47)" x="911.553" y="1541.47">2</text>
</g>
<g clip-path="url(#clip2300)">
<text style="fill:#000000; fill-opacity:1; font-family:Arial,Helvetica Neue,Helvetica,sans-serif; font-size:48px; text-anchor:middle;" transform="rotate(0, 1232.61, 1541.47)" x="1232.61" y="1541.47">3</text>
</g>
<g clip-path="url(#clip2300)">
<text style="fill:#000000; fill-opacity:1; font-family:Arial,Helvetica Neue,Helvetica,sans-serif; font-size:48px; text-anchor:middle;" transform="rotate(0, 1553.66, 1541.47)" x="1553.66" y="1541.47">4</text>
</g>
<g clip-path="url(#clip2300)">
<text style="fill:#000000; fill-opacity:1; font-family:Arial,Helvetica Neue,Helvetica,sans-serif; font-size:48px; text-anchor:middle;" transform="rotate(0, 1874.71, 1541.47)" x="1874.71" y="1541.47">5</text>
</g>
<g clip-path="url(#clip2300)">
<text style="fill:#000000; fill-opacity:1; font-family:Arial,Helvetica Neue,Helvetica,sans-serif; font-size:48px; text-anchor:middle;" transform="rotate(0, 2195.76, 1541.47)" x="2195.76" y="1541.47">6</text>
</g>
<g clip-path="url(#clip2300)">
<text style="fill:#000000; fill-opacity:1; font-family:Arial,Helvetica Neue,Helvetica,sans-serif; font-size:48px; text-anchor:end;" transform="rotate(0, 184.77, 1303.96)" x="184.77" y="1303.96">-0.04</text>
</g>
<g clip-path="url(#clip2300)">
<text style="fill:#000000; fill-opacity:1; font-family:Arial,Helvetica Neue,Helvetica,sans-serif; font-size:48px; text-anchor:end;" transform="rotate(0, 184.77, 1044.44)" x="184.77" y="1044.44">-0.02</text>
</g>
<g clip-path="url(#clip2300)">
<text style="fill:#000000; fill-opacity:1; font-family:Arial,Helvetica Neue,Helvetica,sans-serif; font-size:48px; text-anchor:end;" transform="rotate(0, 184.77, 784.925)" x="184.77" y="784.925">0.00</text>
</g>
<g clip-path="url(#clip2300)">
<text style="fill:#000000; fill-opacity:1; font-family:Arial,Helvetica Neue,Helvetica,sans-serif; font-size:48px; text-anchor:end;" transform="rotate(0, 184.77, 525.406)" x="184.77" y="525.406">0.02</text>
</g>
<g clip-path="url(#clip2300)">
<text style="fill:#000000; fill-opacity:1; font-family:Arial,Helvetica Neue,Helvetica,sans-serif; font-size:48px; text-anchor:end;" transform="rotate(0, 184.77, 265.887)" x="184.77" y="265.887">0.04</text>
</g>
<polyline clip-path="url(#clip2302)" style="stroke:#009af9; stroke-width:4; stroke-opacity:1; fill:none" points="
  269.449,88.0053 279.43,91.2168 296.936,112.237 317.664,161.642 342.794,254.311 370.6,392.246 400.928,573.514 433.019,783.266 466.659,1001.14 501.692,1201.26 
  538.198,1356.22 576.372,1439.18 616.759,1426.85 660.251,1301.2 705.632,1069.94 748.934,794.213 791.608,517.656 833.726,286.272 876.13,134.135 919.372,88.8828 
  964.612,168.499 1012.79,378.461 1059.19,660.961 1103.68,952.721 1147.26,1205.61 1190.61,1380 1234.49,1446.71 1279.97,1386.81 1328.37,1192.31 1375.8,911.268 
  1420.72,616.236 1464.69,354.651 1508.23,169.057 1552.19,89.4418 1597.57,135.781 1645.79,317.563 1693.72,595.025 1738.8,890.927 1782.95,1158.33 1826.52,1352.58 
  1870.46,1443.11 1915.67,1408.9 1963.63,1239.24 2011.92,966.278 2057.13,670.224 2101.4,397.935 2144.98,195.79 2188.88,94.965 2233.93,117.513 2281.61,275.182 
  2292.08,325.45 
  "/>
<polyline clip-path="url(#clip2302)" style="stroke:#e26f46; stroke-width:4; stroke-opacity:1; fill:none" points="
  269.449,88.0053 279.43,91.2168 296.936,112.237 317.664,161.642 342.794,254.311 370.6,392.246 400.928,573.514 433.019,783.266 466.659,1001.14 501.692,1201.26 
  538.198,1356.22 576.372,1439.18 616.759,1426.85 660.251,1301.21 705.632,1069.94 748.934,794.215 791.608,517.658 833.726,286.273 876.13,134.136 919.372,88.8822 
  964.612,168.497 1012.79,378.457 1059.19,660.956 1103.68,952.716 1147.26,1205.6 1190.61,1379.99 1234.49,1446.71 1279.97,1386.81 1328.37,1192.32 1375.8,911.277 
  1420.72,616.244 1464.69,354.658 1508.23,169.062 1552.19,89.4416 1597.57,135.776 1645.79,317.553 1693.72,595.012 1738.8,890.914 1782.95,1158.32 1826.52,1352.57 
  1870.46,1443.11 1915.67,1408.91 1963.63,1239.25 2011.92,966.294 2057.13,670.241 2101.4,397.948 2144.98,195.798 2188.88,94.9664 2233.93,117.507 2281.61,275.168 
  2292.08,325.434 
  "/>
<polygon clip-path="url(#clip2300)" points="
1824.15,312.204 2280.76,312.204 2280.76,130.764 1824.15,130.764 
  " fill="#ffffff" fill-rule="evenodd" fill-opacity="1"/>
<polyline clip-path="url(#clip2300)" style="stroke:#000000; stroke-width:4; stroke-opacity:1; fill:none" points="
  1824.15,312.204 2280.76,312.204 2280.76,130.764 1824.15,130.764 1824.15,312.204 
  "/>
<polyline clip-path="url(#clip2300)" style="stroke:#009af9; stroke-width:4; stroke-opacity:1; fill:none" points="
  1848.15,191.244 1992.15,191.244 
  "/>
<g clip-path="url(#clip2300)">
<text style="fill:#000000; fill-opacity:1; font-family:Arial,Helvetica Neue,Helvetica,sans-serif; font-size:48px; text-anchor:start;" transform="rotate(0, 2016.15, 208.744)" x="2016.15" y="208.744">Numerical</text>
</g>
<polyline clip-path="url(#clip2300)" style="stroke:#e26f46; stroke-width:4; stroke-opacity:1; fill:none" points="
  1848.15,251.724 1992.15,251.724 
  "/>
<g clip-path="url(#clip2300)">
<text style="fill:#000000; fill-opacity:1; font-family:Arial,Helvetica Neue,Helvetica,sans-serif; font-size:48px; text-anchor:start;" transform="rotate(0, 2016.15, 269.224)" x="2016.15" y="269.224">Analytic</text>
</g>
</svg>
