<?xml version="1.0" encoding="utf-8"?>
<svg xmlns="http://www.w3.org/2000/svg" xmlns:xlink="http://www.w3.org/1999/xlink" width="600" height="400" viewBox="0 0 2400 1600">
<defs>
  <clipPath id="clip7800">
    <rect x="0" y="0" width="2400" height="1600"/>
  </clipPath>
</defs>
<polygon clip-path="url(#clip7800)" points="
0,1600 2400,1600 2400,0 0,0 
  " fill="#ffffff" fill-rule="evenodd" fill-opacity="1"/>
<defs>
  <clipPath id="clip7801">
    <rect x="480" y="0" width="1681" height="1600"/>
  </clipPath>
</defs>
<polygon clip-path="url(#clip7800)" points="
208.77,1487.47 2352.76,1487.47 2352.76,47.2441 208.77,47.2441 
  " fill="#ffffff" fill-rule="evenodd" fill-opacity="1"/>
<defs>
  <clipPath id="clip7802">
    <rect x="208" y="47" width="2145" height="1441"/>
  </clipPath>
</defs>
<polyline clip-path="url(#clip7802)" style="stroke:#000000; stroke-width:2; stroke-opacity:0.1; fill:none" points="
  269.449,1487.47 269.449,47.2441 
  "/>
<polyline clip-path="url(#clip7802)" style="stroke:#000000; stroke-width:2; stroke-opacity:0.1; fill:none" points="
  590.501,1487.47 590.501,47.2441 
  "/>
<polyline clip-path="url(#clip7802)" style="stroke:#000000; stroke-width:2; stroke-opacity:0.1; fill:none" points="
  911.553,1487.47 911.553,47.2441 
  "/>
<polyline clip-path="url(#clip7802)" style="stroke:#000000; stroke-width:2; stroke-opacity:0.1; fill:none" points="
  1232.61,1487.47 1232.61,47.2441 
  "/>
<polyline clip-path="url(#clip7802)" style="stroke:#000000; stroke-width:2; stroke-opacity:0.1; fill:none" points="
  1553.66,1487.47 1553.66,47.2441 
  "/>
<polyline clip-path="url(#clip7802)" style="stroke:#000000; stroke-width:2; stroke-opacity:0.1; fill:none" points="
  1874.71,1487.47 1874.71,47.2441 
  "/>
<polyline clip-path="url(#clip7802)" style="stroke:#000000; stroke-width:2; stroke-opacity:0.1; fill:none" points="
  2195.76,1487.47 2195.76,47.2441 
  "/>
<polyline clip-path="url(#clip7802)" style="stroke:#000000; stroke-width:2; stroke-opacity:0.1; fill:none" points="
  208.77,1286.46 2352.76,1286.46 
  "/>
<polyline clip-path="url(#clip7802)" style="stroke:#000000; stroke-width:2; stroke-opacity:0.1; fill:none" points="
  208.77,1026.94 2352.76,1026.94 
  "/>
<polyline clip-path="url(#clip7802)" style="stroke:#000000; stroke-width:2; stroke-opacity:0.1; fill:none" points="
  208.77,767.425 2352.76,767.425 
  "/>
<polyline clip-path="url(#clip7802)" style="stroke:#000000; stroke-width:2; stroke-opacity:0.1; fill:none" points="
  208.77,507.906 2352.76,507.906 
  "/>
<polyline clip-path="url(#clip7802)" style="stroke:#000000; stroke-width:2; stroke-opacity:0.1; fill:none" points="
  208.77,248.387 2352.76,248.387 
  "/>
<polyline clip-path="url(#clip7800)" style="stroke:#000000; stroke-width:4; stroke-opacity:1; fill:none" points="
  208.77,1487.47 2352.76,1487.47 
  "/>
<polyline clip-path="url(#clip7800)" style="stroke:#000000; stroke-width:4; stroke-opacity:1; fill:none" points="
  208.77,1487.47 208.77,47.2441 
  "/>
<polyline clip-path="url(#clip7800)" style="stroke:#000000; stroke-width:4; stroke-opacity:1; fill:none" points="
  269.449,1487.47 269.449,1465.87 
  "/>
<polyline clip-path="url(#clip7800)" style="stroke:#000000; stroke-width:4; stroke-opacity:1; fill:none" points="
  590.501,1487.47 590.501,1465.87 
  "/>
<polyline clip-path="url(#clip7800)" style="stroke:#000000; stroke-width:4; stroke-opacity:1; fill:none" points="
  911.553,1487.47 911.553,1465.87 
  "/>
<polyline clip-path="url(#clip7800)" style="stroke:#000000; stroke-width:4; stroke-opacity:1; fill:none" points="
  1232.61,1487.47 1232.61,1465.87 
  "/>
<polyline clip-path="url(#clip7800)" style="stroke:#000000; stroke-width:4; stroke-opacity:1; fill:none" points="
  1553.66,1487.47 1553.66,1465.87 
  "/>
<polyline clip-path="url(#clip7800)" style="stroke:#000000; stroke-width:4; stroke-opacity:1; fill:none" points="
  1874.71,1487.47 1874.71,1465.87 
  "/>
<polyline clip-path="url(#clip7800)" style="stroke:#000000; stroke-width:4; stroke-opacity:1; fill:none" points="
  2195.76,1487.47 2195.76,1465.87 
  "/>
<polyline clip-path="url(#clip7800)" style="stroke:#000000; stroke-width:4; stroke-opacity:1; fill:none" points="
  208.77,1286.46 240.93,1286.46 
  "/>
<polyline clip-path="url(#clip7800)" style="stroke:#000000; stroke-width:4; stroke-opacity:1; fill:none" points="
  208.77,1026.94 240.93,1026.94 
  "/>
<polyline clip-path="url(#clip7800)" style="stroke:#000000; stroke-width:4; stroke-opacity:1; fill:none" points="
  208.77,767.425 240.93,767.425 
  "/>
<polyline clip-path="url(#clip7800)" style="stroke:#000000; stroke-width:4; stroke-opacity:1; fill:none" points="
  208.77,507.906 240.93,507.906 
  "/>
<polyline clip-path="url(#clip7800)" style="stroke:#000000; stroke-width:4; stroke-opacity:1; fill:none" points="
  208.77,248.387 240.93,248.387 
  "/>
<g clip-path="url(#clip7800)">
<text style="fill:#000000; fill-opacity:1; font-family:Arial,Helvetica Neue,Helvetica,sans-serif; font-size:48px; text-anchor:middle;" transform="rotate(0, 269.449, 1541.47)" x="269.449" y="1541.47">0</text>
</g>
<g clip-path="url(#clip7800)">
<text style="fill:#000000; fill-opacity:1; font-family:Arial,Helvetica Neue,Helvetica,sans-serif; font-size:48px; text-anchor:middle;" transform="rotate(0, 590.501, 1541.47)" x="590.501" y="1541.47">1</text>
</g>
<g clip-path="url(#clip7800)">
<text style="fill:#000000; fill-opacity:1; font-family:Arial,Helvetica Neue,Helvetica,sans-serif; font-size:48px; text-anchor:middle;" transform="rotate(0, 911.553, 1541.47)" x="911.553" y="1541.47">2</text>
</g>
<g clip-path="url(#clip7800)">
<text style="fill:#000000; fill-opacity:1; font-family:Arial,Helvetica Neue,Helvetica,sans-serif; font-size:48px; text-anchor:middle;" transform="rotate(0, 1232.61, 1541.47)" x="1232.61" y="1541.47">3</text>
</g>
<g clip-path="url(#clip7800)">
<text style="fill:#000000; fill-opacity:1; font-family:Arial,Helvetica Neue,Helvetica,sans-serif; font-size:48px; text-anchor:middle;" transform="rotate(0, 1553.66, 1541.47)" x="1553.66" y="1541.47">4</text>
</g>
<g clip-path="url(#clip7800)">
<text style="fill:#000000; fill-opacity:1; font-family:Arial,Helvetica Neue,Helvetica,sans-serif; font-size:48px; text-anchor:middle;" transform="rotate(0, 1874.71, 1541.47)" x="1874.71" y="1541.47">5</text>
</g>
<g clip-path="url(#clip7800)">
<text style="fill:#000000; fill-opacity:1; font-family:Arial,Helvetica Neue,Helvetica,sans-serif; font-size:48px; text-anchor:middle;" transform="rotate(0, 2195.76, 1541.47)" x="2195.76" y="1541.47">6</text>
</g>
<g clip-path="url(#clip7800)">
<text style="fill:#000000; fill-opacity:1; font-family:Arial,Helvetica Neue,Helvetica,sans-serif; font-size:48px; text-anchor:end;" transform="rotate(0, 184.77, 1303.96)" x="184.77" y="1303.96">-0.04</text>
</g>
<g clip-path="url(#clip7800)">
<text style="fill:#000000; fill-opacity:1; font-family:Arial,Helvetica Neue,Helvetica,sans-serif; font-size:48px; text-anchor:end;" transform="rotate(0, 184.77, 1044.44)" x="184.77" y="1044.44">-0.02</text>
</g>
<g clip-path="url(#clip7800)">
<text style="fill:#000000; fill-opacity:1; font-family:Arial,Helvetica Neue,Helvetica,sans-serif; font-size:48px; text-anchor:end;" transform="rotate(0, 184.77, 784.925)" x="184.77" y="784.925">0.00</text>
</g>
<g clip-path="url(#clip7800)">
<text style="fill:#000000; fill-opacity:1; font-family:Arial,Helvetica Neue,Helvetica,sans-serif; font-size:48px; text-anchor:end;" transform="rotate(0, 184.77, 525.406)" x="184.77" y="525.406">0.02</text>
</g>
<g clip-path="url(#clip7800)">
<text style="fill:#000000; fill-opacity:1; font-family:Arial,Helvetica Neue,Helvetica,sans-serif; font-size:48px; text-anchor:end;" transform="rotate(0, 184.77, 265.887)" x="184.77" y="265.887">0.04</text>
</g>
<polyline clip-path="url(#clip7802)" style="stroke:#009af9; stroke-width:4; stroke-opacity:1; fill:none" points="
  269.449,88.0053 279.43,91.2168 296.936,112.237 317.664,161.642 342.794,254.311 370.6,392.246 400.928,573.514 433.019,783.266 466.659,1001.14 501.692,1201.26 
  538.198,1356.22 576.372,1439.18 616.759,1426.85 660.251,1301.2 705.632,1069.94 748.934,794.213 791.608,517.656 833.726,286.272 876.13,134.135 919.372,88.8828 
  964.612,168.499 1012.79,378.461 1059.19,660.961 1103.68,952.721 1147.26,1205.61 1190.61,1380 1234.49,1446.71 1279.97,1386.81 1328.37,1192.31 1375.8,911.268 
  1420.72,616.236 1464.69,354.651 1508.23,169.057 1552.19,89.4418 1597.57,135.781 1645.79,317.563 1693.72,595.025 1738.8,890.927 1782.95,1158.33 1826.52,1352.58 
  1870.46,1443.11 1915.67,1408.9 1963.63,1239.24 2011.92,966.278 2057.13,670.224 2101.4,397.935 2144.98,195.79 2188.88,94.965 2233.93,117.513 2281.61,275.182 
  2292.08,325.45 
  "/>
<circle clip-path="url(#clip7802)" style="fill:#000000; stroke:none; fill-opacity:1" cx="269.449" cy="88.0053" r="18"/>
<circle clip-path="url(#clip7802)" style="fill:#e26f46; stroke:none; fill-opacity:1" cx="269.449" cy="88.0053" r="14"/>
<circle clip-path="url(#clip7802)" style="fill:#000000; stroke:none; fill-opacity:1" cx="279.43" cy="91.2168" r="18"/>
<circle clip-path="url(#clip7802)" style="fill:#e26f46; stroke:none; fill-opacity:1" cx="279.43" cy="91.2168" r="14"/>
<circle clip-path="url(#clip7802)" style="fill:#000000; stroke:none; fill-opacity:1" cx="296.936" cy="112.237" r="18"/>
<circle clip-path="url(#clip7802)" style="fill:#e26f46; stroke:none; fill-opacity:1" cx="296.936" cy="112.237" r="14"/>
<circle clip-path="url(#clip7802)" style="fill:#000000; stroke:none; fill-opacity:1" cx="317.664" cy="161.642" r="18"/>
<circle clip-path="url(#clip7802)" style="fill:#e26f46; stroke:none; fill-opacity:1" cx="317.664" cy="161.642" r="14"/>
<circle clip-path="url(#clip7802)" style="fill:#000000; stroke:none; fill-opacity:1" cx="342.794" cy="254.311" r="18"/>
<circle clip-path="url(#clip7802)" style="fill:#e26f46; stroke:none; fill-opacity:1" cx="342.794" cy="254.311" r="14"/>
<circle clip-path="url(#clip7802)" style="fill:#000000; stroke:none; fill-opacity:1" cx="370.6" cy="392.246" r="18"/>
<circle clip-path="url(#clip7802)" style="fill:#e26f46; stroke:none; fill-opacity:1" cx="370.6" cy="392.246" r="14"/>
<circle clip-path="url(#clip7802)" style="fill:#000000; stroke:none; fill-opacity:1" cx="400.928" cy="573.514" r="18"/>
<circle clip-path="url(#clip7802)" style="fill:#e26f46; stroke:none; fill-opacity:1" cx="400.928" cy="573.514" r="14"/>
<circle clip-path="url(#clip7802)" style="fill:#000000; stroke:none; fill-opacity:1" cx="433.019" cy="783.266" r="18"/>
<circle clip-path="url(#clip7802)" style="fill:#e26f46; stroke:none; fill-opacity:1" cx="433.019" cy="783.266" r="14"/>
<circle clip-path="url(#clip7802)" style="fill:#000000; stroke:none; fill-opacity:1" cx="466.659" cy="1001.14" r="18"/>
<circle clip-path="url(#clip7802)" style="fill:#e26f46; stroke:none; fill-opacity:1" cx="466.659" cy="1001.14" r="14"/>
<circle clip-path="url(#clip7802)" style="fill:#000000; stroke:none; fill-opacity:1" cx="501.692" cy="1201.26" r="18"/>
<circle clip-path="url(#clip7802)" style="fill:#e26f46; stroke:none; fill-opacity:1" cx="501.692" cy="1201.26" r="14"/>
<circle clip-path="url(#clip7802)" style="fill:#000000; stroke:none; fill-opacity:1" cx="538.198" cy="1356.22" r="18"/>
<circle clip-path="url(#clip7802)" style="fill:#e26f46; stroke:none; fill-opacity:1" cx="538.198" cy="1356.22" r="14"/>
<circle clip-path="url(#clip7802)" style="fill:#000000; stroke:none; fill-opacity:1" cx="576.372" cy="1439.18" r="18"/>
<circle clip-path="url(#clip7802)" style="fill:#e26f46; stroke:none; fill-opacity:1" cx="576.372" cy="1439.18" r="14"/>
<circle clip-path="url(#clip7802)" style="fill:#000000; stroke:none; fill-opacity:1" cx="616.759" cy="1426.85" r="18"/>
<circle clip-path="url(#clip7802)" style="fill:#e26f46; stroke:none; fill-opacity:1" cx="616.759" cy="1426.85" r="14"/>
<circle clip-path="url(#clip7802)" style="fill:#000000; stroke:none; fill-opacity:1" cx="660.251" cy="1301.21" r="18"/>
<circle clip-path="url(#clip7802)" style="fill:#e26f46; stroke:none; fill-opacity:1" cx="660.251" cy="1301.21" r="14"/>
<circle clip-path="url(#clip7802)" style="fill:#000000; stroke:none; fill-opacity:1" cx="705.632" cy="1069.94" r="18"/>
<circle clip-path="url(#clip7802)" style="fill:#e26f46; stroke:none; fill-opacity:1" cx="705.632" cy="1069.94" r="14"/>
<circle clip-path="url(#clip7802)" style="fill:#000000; stroke:none; fill-opacity:1" cx="748.934" cy="794.215" r="18"/>
<circle clip-path="url(#clip7802)" style="fill:#e26f46; stroke:none; fill-opacity:1" cx="748.934" cy="794.215" r="14"/>
<circle clip-path="url(#clip7802)" style="fill:#000000; stroke:none; fill-opacity:1" cx="791.608" cy="517.658" r="18"/>
<circle clip-path="url(#clip7802)" style="fill:#e26f46; stroke:none; fill-opacity:1" cx="791.608" cy="517.658" r="14"/>
<circle clip-path="url(#clip7802)" style="fill:#000000; stroke:none; fill-opacity:1" cx="833.726" cy="286.273" r="18"/>
<circle clip-path="url(#clip7802)" style="fill:#e26f46; stroke:none; fill-opacity:1" cx="833.726" cy="286.273" r="14"/>
<circle clip-path="url(#clip7802)" style="fill:#000000; stroke:none; fill-opacity:1" cx="876.13" cy="134.136" r="18"/>
<circle clip-path="url(#clip7802)" style="fill:#e26f46; stroke:none; fill-opacity:1" cx="876.13" cy="134.136" r="14"/>
<circle clip-path="url(#clip7802)" style="fill:#000000; stroke:none; fill-opacity:1" cx="919.372" cy="88.8822" r="18"/>
<circle clip-path="url(#clip7802)" style="fill:#e26f46; stroke:none; fill-opacity:1" cx="919.372" cy="88.8822" r="14"/>
<circle clip-path="url(#clip7802)" style="fill:#000000; stroke:none; fill-opacity:1" cx="964.612" cy="168.497" r="18"/>
<circle clip-path="url(#clip7802)" style="fill:#e26f46; stroke:none; fill-opacity:1" cx="964.612" cy="168.497" r="14"/>
<circle clip-path="url(#clip7802)" style="fill:#000000; stroke:none; fill-opacity:1" cx="1012.79" cy="378.457" r="18"/>
<circle clip-path="url(#clip7802)" style="fill:#e26f46; stroke:none; fill-opacity:1" cx="1012.79" cy="378.457" r="14"/>
<circle clip-path="url(#clip7802)" style="fill:#000000; stroke:none; fill-opacity:1" cx="1059.19" cy="660.956" r="18"/>
<circle clip-path="url(#clip7802)" style="fill:#e26f46; stroke:none; fill-opacity:1" cx="1059.19" cy="660.956" r="14"/>
<circle clip-path="url(#clip7802)" style="fill:#000000; stroke:none; fill-opacity:1" cx="1103.68" cy="952.716" r="18"/>
<circle clip-path="url(#clip7802)" style="fill:#e26f46; stroke:none; fill-opacity:1" cx="1103.68" cy="952.716" r="14"/>
<circle clip-path="url(#clip7802)" style="fill:#000000; stroke:none; fill-opacity:1" cx="1147.26" cy="1205.6" r="18"/>
<circle clip-path="url(#clip7802)" style="fill:#e26f46; stroke:none; fill-opacity:1" cx="1147.26" cy="1205.6" r="14"/>
<circle clip-path="url(#clip7802)" style="fill:#000000; stroke:none; fill-opacity:1" cx="1190.61" cy="1379.99" r="18"/>
<circle clip-path="url(#clip7802)" style="fill:#e26f46; stroke:none; fill-opacity:1" cx="1190.61" cy="1379.99" r="14"/>
<circle clip-path="url(#clip7802)" style="fill:#000000; stroke:none; fill-opacity:1" cx="1234.49" cy="1446.71" r="18"/>
<circle clip-path="url(#clip7802)" style="fill:#e26f46; stroke:none; fill-opacity:1" cx="1234.49" cy="1446.71" r="14"/>
<circle clip-path="url(#clip7802)" style="fill:#000000; stroke:none; fill-opacity:1" cx="1279.97" cy="1386.81" r="18"/>
<circle clip-path="url(#clip7802)" style="fill:#e26f46; stroke:none; fill-opacity:1" cx="1279.97" cy="1386.81" r="14"/>
<circle clip-path="url(#clip7802)" style="fill:#000000; stroke:none; fill-opacity:1" cx="1328.37" cy="1192.32" r="18"/>
<circle clip-path="url(#clip7802)" style="fill:#e26f46; stroke:none; fill-opacity:1" cx="1328.37" cy="1192.32" r="14"/>
<circle clip-path="url(#clip7802)" style="fill:#000000; stroke:none; fill-opacity:1" cx="1375.8" cy="911.277" r="18"/>
<circle clip-path="url(#clip7802)" style="fill:#e26f46; stroke:none; fill-opacity:1" cx="1375.8" cy="911.277" r="14"/>
<circle clip-path="url(#clip7802)" style="fill:#000000; stroke:none; fill-opacity:1" cx="1420.72" cy="616.244" r="18"/>
<circle clip-path="url(#clip7802)" style="fill:#e26f46; stroke:none; fill-opacity:1" cx="1420.72" cy="616.244" r="14"/>
<circle clip-path="url(#clip7802)" style="fill:#000000; stroke:none; fill-opacity:1" cx="1464.69" cy="354.658" r="18"/>
<circle clip-path="url(#clip7802)" style="fill:#e26f46; stroke:none; fill-opacity:1" cx="1464.69" cy="354.658" r="14"/>
<circle clip-path="url(#clip7802)" style="fill:#000000; stroke:none; fill-opacity:1" cx="1508.23" cy="169.062" r="18"/>
<circle clip-path="url(#clip7802)" style="fill:#e26f46; stroke:none; fill-opacity:1" cx="1508.23" cy="169.062" r="14"/>
<circle clip-path="url(#clip7802)" style="fill:#000000; stroke:none; fill-opacity:1" cx="1552.19" cy="89.4416" r="18"/>
<circle clip-path="url(#clip7802)" style="fill:#e26f46; stroke:none; fill-opacity:1" cx="1552.19" cy="89.4416" r="14"/>
<circle clip-path="url(#clip7802)" style="fill:#000000; stroke:none; fill-opacity:1" cx="1597.57" cy="135.776" r="18"/>
<circle clip-path="url(#clip7802)" style="fill:#e26f46; stroke:none; fill-opacity:1" cx="1597.57" cy="135.776" r="14"/>
<circle clip-path="url(#clip7802)" style="fill:#000000; stroke:none; fill-opacity:1" cx="1645.79" cy="317.553" r="18"/>
<circle clip-path="url(#clip7802)" style="fill:#e26f46; stroke:none; fill-opacity:1" cx="1645.79" cy="317.553" r="14"/>
<circle clip-path="url(#clip7802)" style="fill:#000000; stroke:none; fill-opacity:1" cx="1693.72" cy="595.012" r="18"/>
<circle clip-path="url(#clip7802)" style="fill:#e26f46; stroke:none; fill-opacity:1" cx="1693.72" cy="595.012" r="14"/>
<circle clip-path="url(#clip7802)" style="fill:#000000; stroke:none; fill-opacity:1" cx="1738.8" cy="890.914" r="18"/>
<circle clip-path="url(#clip7802)" style="fill:#e26f46; stroke:none; fill-opacity:1" cx="1738.8" cy="890.914" r="14"/>
<circle clip-path="url(#clip7802)" style="fill:#000000; stroke:none; fill-opacity:1" cx="1782.95" cy="1158.32" r="18"/>
<circle clip-path="url(#clip7802)" style="fill:#e26f46; stroke:none; fill-opacity:1" cx="1782.95" cy="1158.32" r="14"/>
<circle clip-path="url(#clip7802)" style="fill:#000000; stroke:none; fill-opacity:1" cx="1826.52" cy="1352.57" r="18"/>
<circle clip-path="url(#clip7802)" style="fill:#e26f46; stroke:none; fill-opacity:1" cx="1826.52" cy="1352.57" r="14"/>
<circle clip-path="url(#clip7802)" style="fill:#000000; stroke:none; fill-opacity:1" cx="1870.46" cy="1443.11" r="18"/>
<circle clip-path="url(#clip7802)" style="fill:#e26f46; stroke:none; fill-opacity:1" cx="1870.46" cy="1443.11" r="14"/>
<circle clip-path="url(#clip7802)" style="fill:#000000; stroke:none; fill-opacity:1" cx="1915.67" cy="1408.91" r="18"/>
<circle clip-path="url(#clip7802)" style="fill:#e26f46; stroke:none; fill-opacity:1" cx="1915.67" cy="1408.91" r="14"/>
<circle clip-path="url(#clip7802)" style="fill:#000000; stroke:none; fill-opacity:1" cx="1963.63" cy="1239.25" r="18"/>
<circle clip-path="url(#clip7802)" style="fill:#e26f46; stroke:none; fill-opacity:1" cx="1963.63" cy="1239.25" r="14"/>
<circle clip-path="url(#clip7802)" style="fill:#000000; stroke:none; fill-opacity:1" cx="2011.92" cy="966.294" r="18"/>
<circle clip-path="url(#clip7802)" style="fill:#e26f46; stroke:none; fill-opacity:1" cx="2011.92" cy="966.294" r="14"/>
<circle clip-path="url(#clip7802)" style="fill:#000000; stroke:none; fill-opacity:1" cx="2057.13" cy="670.241" r="18"/>
<circle clip-path="url(#clip7802)" style="fill:#e26f46; stroke:none; fill-opacity:1" cx="2057.13" cy="670.241" r="14"/>
<circle clip-path="url(#clip7802)" style="fill:#000000; stroke:none; fill-opacity:1" cx="2101.4" cy="397.948" r="18"/>
<circle clip-path="url(#clip7802)" style="fill:#e26f46; stroke:none; fill-opacity:1" cx="2101.4" cy="397.948" r="14"/>
<circle clip-path="url(#clip7802)" style="fill:#000000; stroke:none; fill-opacity:1" cx="2144.98" cy="195.798" r="18"/>
<circle clip-path="url(#clip7802)" style="fill:#e26f46; stroke:none; fill-opacity:1" cx="2144.98" cy="195.798" r="14"/>
<circle clip-path="url(#clip7802)" style="fill:#000000; stroke:none; fill-opacity:1" cx="2188.88" cy="94.9664" r="18"/>
<circle clip-path="url(#clip7802)" style="fill:#e26f46; stroke:none; fill-opacity:1" cx="2188.88" cy="94.9664" r="14"/>
<circle clip-path="url(#clip7802)" style="fill:#000000; stroke:none; fill-opacity:1" cx="2233.93" cy="117.507" r="18"/>
<circle clip-path="url(#clip7802)" style="fill:#e26f46; stroke:none; fill-opacity:1" cx="2233.93" cy="117.507" r="14"/>
<circle clip-path="url(#clip7802)" style="fill:#000000; stroke:none; fill-opacity:1" cx="2281.61" cy="275.168" r="18"/>
<circle clip-path="url(#clip7802)" style="fill:#e26f46; stroke:none; fill-opacity:1" cx="2281.61" cy="275.168" r="14"/>
<circle clip-path="url(#clip7802)" style="fill:#000000; stroke:none; fill-opacity:1" cx="2292.08" cy="325.434" r="18"/>
<circle clip-path="url(#clip7802)" style="fill:#e26f46; stroke:none; fill-opacity:1" cx="2292.08" cy="325.434" r="14"/>
<polygon clip-path="url(#clip7800)" points="
1824.15,312.204 2280.76,312.204 2280.76,130.764 1824.15,130.764 
  " fill="#ffffff" fill-rule="evenodd" fill-opacity="1"/>
<polyline clip-path="url(#clip7800)" style="stroke:#000000; stroke-width:4; stroke-opacity:1; fill:none" points="
  1824.15,312.204 2280.76,312.204 2280.76,130.764 1824.15,130.764 1824.15,312.204 
  "/>
<polyline clip-path="url(#clip7800)" style="stroke:#009af9; stroke-width:4; stroke-opacity:1; fill:none" points="
  1848.15,191.244 1992.15,191.244 
  "/>
<g clip-path="url(#clip7800)">
<text style="fill:#000000; fill-opacity:1; font-family:Arial,Helvetica Neue,Helvetica,sans-serif; font-size:48px; text-anchor:start;" transform="rotate(0, 2016.15, 208.744)" x="2016.15" y="208.744">Numerical</text>
</g>
<circle clip-path="url(#clip7800)" style="fill:#000000; stroke:none; fill-opacity:1" cx="1932.15" cy="251.724" r="25"/>
<circle clip-path="url(#clip7800)" style="fill:#e26f46; stroke:none; fill-opacity:1" cx="1932.15" cy="251.724" r="21"/>
<g clip-path="url(#clip7800)">
<text style="fill:#000000; fill-opacity:1; font-family:Arial,Helvetica Neue,Helvetica,sans-serif; font-size:48px; text-anchor:start;" transform="rotate(0, 2016.15, 269.224)" x="2016.15" y="269.224">Analytic</text>
</g>
</svg>
