<?xml version="1.0" encoding="utf-8"?>
<svg xmlns="http://www.w3.org/2000/svg" xmlns:xlink="http://www.w3.org/1999/xlink" width="600" height="400" viewBox="0 0 2400 1600">
<defs>
  <clipPath id="clip4300">
    <rect x="0" y="0" width="2400" height="1600"/>
  </clipPath>
</defs>
<polygon clip-path="url(#clip4300)" points="
0,1600 2400,1600 2400,0 0,0 
  " fill="#ffffff" fill-rule="evenodd" fill-opacity="1"/>
<defs>
  <clipPath id="clip4301">
    <rect x="480" y="0" width="1681" height="1600"/>
  </clipPath>
</defs>
<polygon clip-path="url(#clip4300)" points="
168.627,1487.47 2352.76,1487.47 2352.76,47.2441 168.627,47.2441 
  " fill="#ffffff" fill-rule="evenodd" fill-opacity="1"/>
<defs>
  <clipPath id="clip4302">
    <rect x="168" y="47" width="2185" height="1441"/>
  </clipPath>
</defs>
<polyline clip-path="url(#clip4302)" style="stroke:#000000; stroke-width:2; stroke-opacity:0.1; fill:none" points="
  230.442,1487.47 230.442,47.2441 
  "/>
<polyline clip-path="url(#clip4302)" style="stroke:#000000; stroke-width:2; stroke-opacity:0.1; fill:none" points="
  573.858,1487.47 573.858,47.2441 
  "/>
<polyline clip-path="url(#clip4302)" style="stroke:#000000; stroke-width:2; stroke-opacity:0.1; fill:none" points="
  917.275,1487.47 917.275,47.2441 
  "/>
<polyline clip-path="url(#clip4302)" style="stroke:#000000; stroke-width:2; stroke-opacity:0.1; fill:none" points="
  1260.69,1487.47 1260.69,47.2441 
  "/>
<polyline clip-path="url(#clip4302)" style="stroke:#000000; stroke-width:2; stroke-opacity:0.1; fill:none" points="
  1604.11,1487.47 1604.11,47.2441 
  "/>
<polyline clip-path="url(#clip4302)" style="stroke:#000000; stroke-width:2; stroke-opacity:0.1; fill:none" points="
  1947.52,1487.47 1947.52,47.2441 
  "/>
<polyline clip-path="url(#clip4302)" style="stroke:#000000; stroke-width:2; stroke-opacity:0.1; fill:none" points="
  2290.94,1487.47 2290.94,47.2441 
  "/>
<polyline clip-path="url(#clip4302)" style="stroke:#000000; stroke-width:2; stroke-opacity:0.1; fill:none" points="
  168.627,1358.07 2352.76,1358.07 
  "/>
<polyline clip-path="url(#clip4302)" style="stroke:#000000; stroke-width:2; stroke-opacity:0.1; fill:none" points="
  168.627,926.016 2352.76,926.016 
  "/>
<polyline clip-path="url(#clip4302)" style="stroke:#000000; stroke-width:2; stroke-opacity:0.1; fill:none" points="
  168.627,493.966 2352.76,493.966 
  "/>
<polyline clip-path="url(#clip4302)" style="stroke:#000000; stroke-width:2; stroke-opacity:0.1; fill:none" points="
  168.627,61.9154 2352.76,61.9154 
  "/>
<polyline clip-path="url(#clip4300)" style="stroke:#000000; stroke-width:4; stroke-opacity:1; fill:none" points="
  168.627,1487.47 2352.76,1487.47 
  "/>
<polyline clip-path="url(#clip4300)" style="stroke:#000000; stroke-width:4; stroke-opacity:1; fill:none" points="
  168.627,1487.47 168.627,47.2441 
  "/>
<polyline clip-path="url(#clip4300)" style="stroke:#000000; stroke-width:4; stroke-opacity:1; fill:none" points="
  230.442,1487.47 230.442,1465.87 
  "/>
<polyline clip-path="url(#clip4300)" style="stroke:#000000; stroke-width:4; stroke-opacity:1; fill:none" points="
  573.858,1487.47 573.858,1465.87 
  "/>
<polyline clip-path="url(#clip4300)" style="stroke:#000000; stroke-width:4; stroke-opacity:1; fill:none" points="
  917.275,1487.47 917.275,1465.87 
  "/>
<polyline clip-path="url(#clip4300)" style="stroke:#000000; stroke-width:4; stroke-opacity:1; fill:none" points="
  1260.69,1487.47 1260.69,1465.87 
  "/>
<polyline clip-path="url(#clip4300)" style="stroke:#000000; stroke-width:4; stroke-opacity:1; fill:none" points="
  1604.11,1487.47 1604.11,1465.87 
  "/>
<polyline clip-path="url(#clip4300)" style="stroke:#000000; stroke-width:4; stroke-opacity:1; fill:none" points="
  1947.52,1487.47 1947.52,1465.87 
  "/>
<polyline clip-path="url(#clip4300)" style="stroke:#000000; stroke-width:4; stroke-opacity:1; fill:none" points="
  2290.94,1487.47 2290.94,1465.87 
  "/>
<polyline clip-path="url(#clip4300)" style="stroke:#000000; stroke-width:4; stroke-opacity:1; fill:none" points="
  168.627,1358.07 201.389,1358.07 
  "/>
<polyline clip-path="url(#clip4300)" style="stroke:#000000; stroke-width:4; stroke-opacity:1; fill:none" points="
  168.627,926.016 201.389,926.016 
  "/>
<polyline clip-path="url(#clip4300)" style="stroke:#000000; stroke-width:4; stroke-opacity:1; fill:none" points="
  168.627,493.966 201.389,493.966 
  "/>
<polyline clip-path="url(#clip4300)" style="stroke:#000000; stroke-width:4; stroke-opacity:1; fill:none" points="
  168.627,61.9154 201.389,61.9154 
  "/>
<g clip-path="url(#clip4300)">
<text style="fill:#000000; fill-opacity:1; font-family:Arial,Helvetica Neue,Helvetica,sans-serif; font-size:48px; text-anchor:middle;" transform="rotate(0, 230.442, 1541.47)" x="230.442" y="1541.47">0</text>
</g>
<g clip-path="url(#clip4300)">
<text style="fill:#000000; fill-opacity:1; font-family:Arial,Helvetica Neue,Helvetica,sans-serif; font-size:48px; text-anchor:middle;" transform="rotate(0, 573.858, 1541.47)" x="573.858" y="1541.47">10</text>
</g>
<g clip-path="url(#clip4300)">
<text style="fill:#000000; fill-opacity:1; font-family:Arial,Helvetica Neue,Helvetica,sans-serif; font-size:48px; text-anchor:middle;" transform="rotate(0, 917.275, 1541.47)" x="917.275" y="1541.47">20</text>
</g>
<g clip-path="url(#clip4300)">
<text style="fill:#000000; fill-opacity:1; font-family:Arial,Helvetica Neue,Helvetica,sans-serif; font-size:48px; text-anchor:middle;" transform="rotate(0, 1260.69, 1541.47)" x="1260.69" y="1541.47">30</text>
</g>
<g clip-path="url(#clip4300)">
<text style="fill:#000000; fill-opacity:1; font-family:Arial,Helvetica Neue,Helvetica,sans-serif; font-size:48px; text-anchor:middle;" transform="rotate(0, 1604.11, 1541.47)" x="1604.11" y="1541.47">40</text>
</g>
<g clip-path="url(#clip4300)">
<text style="fill:#000000; fill-opacity:1; font-family:Arial,Helvetica Neue,Helvetica,sans-serif; font-size:48px; text-anchor:middle;" transform="rotate(0, 1947.52, 1541.47)" x="1947.52" y="1541.47">50</text>
</g>
<g clip-path="url(#clip4300)">
<text style="fill:#000000; fill-opacity:1; font-family:Arial,Helvetica Neue,Helvetica,sans-serif; font-size:48px; text-anchor:middle;" transform="rotate(0, 2290.94, 1541.47)" x="2290.94" y="1541.47">60</text>
</g>
<g clip-path="url(#clip4300)">
<text style="fill:#000000; fill-opacity:1; font-family:Arial,Helvetica Neue,Helvetica,sans-serif; font-size:48px; text-anchor:end;" transform="rotate(0, 144.627, 1375.57)" x="144.627" y="1375.57">-20</text>
</g>
<g clip-path="url(#clip4300)">
<text style="fill:#000000; fill-opacity:1; font-family:Arial,Helvetica Neue,Helvetica,sans-serif; font-size:48px; text-anchor:end;" transform="rotate(0, 144.627, 943.516)" x="144.627" y="943.516">-15</text>
</g>
<g clip-path="url(#clip4300)">
<text style="fill:#000000; fill-opacity:1; font-family:Arial,Helvetica Neue,Helvetica,sans-serif; font-size:48px; text-anchor:end;" transform="rotate(0, 144.627, 511.466)" x="144.627" y="511.466">-10</text>
</g>
<g clip-path="url(#clip4300)">
<text style="fill:#000000; fill-opacity:1; font-family:Arial,Helvetica Neue,Helvetica,sans-serif; font-size:48px; text-anchor:end;" transform="rotate(0, 144.627, 79.4154)" x="144.627" y="79.4154">-5</text>
</g>
<polyline clip-path="url(#clip4302)" style="stroke:#009af9; stroke-width:4; stroke-opacity:1; fill:none" points="
  230.442,103.392 233.882,104.719 237.322,106.046 240.762,107.373 244.201,108.7 247.641,110.027 251.081,111.353 254.521,112.68 257.961,114.007 261.401,115.334 
  264.841,116.661 268.281,117.988 271.721,119.315 275.161,120.642 278.6,121.968 282.04,123.295 285.48,124.622 288.92,125.949 292.36,127.276 295.8,128.603 
  299.24,129.93 302.68,131.257 306.12,132.583 309.56,133.91 312.999,135.237 316.439,136.564 319.879,137.891 323.319,139.218 326.759,140.545 330.199,141.872 
  333.639,143.199 337.079,144.525 340.519,145.852 343.959,147.179 347.398,148.506 350.838,149.833 354.278,151.16 357.718,152.487 361.158,153.814 364.598,155.14 
  368.038,156.467 371.478,157.794 374.918,159.121 378.357,160.448 381.797,161.775 385.237,163.102 388.677,164.429 392.117,165.755 395.557,167.082 398.997,168.409 
  402.437,169.736 405.877,171.063 409.317,172.39 412.756,173.717 416.196,175.044 419.636,176.37 423.076,177.697 426.516,179.024 429.956,180.351 433.396,181.678 
  436.836,183.005 440.276,184.332 443.716,185.659 447.155,186.985 450.595,188.312 454.035,189.639 457.475,190.966 460.915,192.293 464.355,193.62 467.795,194.947 
  471.235,196.274 474.675,197.6 478.115,198.927 481.554,200.254 484.994,201.581 488.434,202.908 491.874,204.235 495.314,205.562 498.754,206.889 502.194,208.215 
  505.634,209.542 509.074,210.869 512.514,212.196 515.953,213.523 519.393,214.85 522.833,216.177 526.273,217.504 529.713,218.831 533.153,220.157 536.593,221.484 
  540.033,222.811 543.473,224.138 546.913,225.465 550.352,226.792 553.792,228.119 557.232,229.446 560.672,230.772 564.112,232.099 567.552,233.426 570.992,234.753 
  574.432,236.08 577.872,237.407 581.311,238.734 584.751,240.061 588.191,241.387 591.631,242.714 595.071,244.041 598.511,245.368 601.951,246.695 605.391,248.022 
  608.831,249.349 612.271,250.676 615.71,252.002 619.15,253.329 622.59,254.656 626.03,255.983 629.47,257.31 632.91,258.637 636.35,259.964 639.79,261.291 
  643.23,262.617 646.67,263.944 650.109,265.271 653.549,266.598 656.989,267.925 660.429,269.252 663.869,270.579 667.309,271.906 670.749,273.232 674.189,274.559 
  677.629,275.886 681.069,277.213 684.508,278.54 687.948,279.867 691.388,281.194 694.828,282.521 698.268,283.847 701.708,285.174 705.148,286.501 708.588,287.828 
  712.028,289.155 715.468,290.482 718.907,291.809 722.347,293.136 725.787,294.463 729.227,295.789 732.667,297.116 736.107,298.443 739.547,299.77 742.987,301.097 
  746.427,302.424 749.867,303.751 753.306,305.078 756.746,306.404 760.186,307.731 763.626,309.058 767.066,310.385 770.506,311.712 773.946,313.039 777.386,314.366 
  780.826,315.693 784.265,317.019 787.705,318.346 791.145,319.673 794.585,321 798.025,322.327 801.465,323.654 804.905,324.981 808.345,326.308 811.785,327.634 
  815.225,328.961 818.664,330.288 822.104,331.615 825.544,332.942 828.984,334.269 832.424,335.596 835.864,336.923 839.304,338.249 842.744,339.576 846.184,340.903 
  849.624,342.23 853.063,343.557 856.503,344.884 859.943,346.211 863.383,347.538 866.823,348.864 870.263,350.191 873.703,351.518 877.143,352.845 880.583,354.172 
  884.023,355.499 887.462,356.826 890.902,358.153 894.342,359.479 897.782,360.806 901.222,362.133 904.662,363.46 908.102,364.787 911.542,366.114 914.982,367.441 
  918.422,368.768 921.861,370.095 925.301,371.421 928.741,372.748 932.181,374.075 935.621,375.402 939.061,376.729 942.501,378.056 945.941,379.383 949.381,380.71 
  952.821,382.036 956.26,383.363 959.7,384.69 963.14,386.017 966.58,387.344 970.02,388.671 973.46,389.998 976.9,391.325 980.34,392.651 983.78,393.978 
  987.219,395.305 990.659,396.632 994.099,397.959 997.539,399.286 1000.98,400.613 1004.42,401.94 1007.86,403.266 1011.3,404.593 1014.74,405.92 1018.18,407.247 
  1021.62,408.574 1025.06,409.901 1028.5,411.228 1031.94,412.555 1035.38,413.881 1038.82,415.208 1042.26,416.535 1045.7,417.862 1049.14,419.189 1052.58,420.516 
  1056.02,421.843 1059.46,423.17 1062.9,424.496 1066.34,425.823 1069.78,427.15 1073.22,428.477 1076.66,429.804 1080.1,431.131 1083.54,432.458 1086.98,433.785 
  1090.42,435.111 1093.86,436.438 1097.3,437.765 1100.74,439.092 1104.18,440.419 1107.62,441.746 1111.06,443.073 1114.5,444.4 1117.94,445.726 1121.38,447.053 
  1124.82,448.38 1128.26,449.707 1131.7,451.034 1135.14,452.361 1138.58,453.688 1142.01,455.015 1145.45,456.342 1148.89,457.668 1152.33,458.995 1155.77,460.322 
  1159.21,461.649 1162.65,462.976 1166.09,464.303 1169.53,465.63 1172.97,466.957 1176.41,468.283 1179.85,469.61 1183.29,470.937 1186.73,472.264 1190.17,473.591 
  1193.61,474.918 1197.05,476.245 1200.49,477.572 1203.93,478.898 1207.37,480.225 1210.81,481.552 1214.25,482.879 1217.69,484.206 1221.13,485.533 1224.57,486.86 
  1228.01,488.187 1231.45,489.513 1234.89,490.84 1238.33,492.167 1241.77,493.494 1245.21,494.821 1248.65,496.148 1252.09,497.475 1255.53,498.802 1258.97,500.128 
  1262.41,501.455 1265.85,502.782 1269.29,504.109 1272.73,505.436 1276.17,506.763 1279.61,508.09 1283.05,509.417 1286.49,510.743 1289.93,512.07 1293.37,513.397 
  1296.81,514.724 1300.25,516.051 1303.69,517.378 1307.13,518.705 1310.57,520.032 1314.01,521.358 1317.45,522.685 1320.89,524.012 1324.33,525.339 1327.77,526.666 
  1331.21,527.993 1334.65,529.32 1338.09,530.647 1341.53,531.974 1344.97,533.3 1348.41,534.627 1351.85,535.954 1355.29,537.281 1358.73,538.608 1362.17,539.935 
  1365.61,541.262 1369.05,542.589 1372.49,543.915 1375.93,545.242 1379.37,546.569 1382.81,547.896 1386.25,549.223 1389.69,550.55 1393.13,551.877 1396.57,553.204 
  1400.01,554.53 1403.45,555.857 1406.89,557.184 1410.33,558.511 1413.77,559.838 1417.21,561.165 1420.65,562.492 1424.09,563.819 1427.53,565.145 1430.97,566.472 
  1434.41,567.799 1437.85,569.126 1441.29,570.453 1444.73,571.78 1448.17,573.107 1451.61,574.434 1455.05,575.76 1458.49,577.087 1461.93,578.414 1465.37,579.741 
  1468.81,581.068 1472.25,582.395 1475.69,583.722 1479.12,585.049 1482.56,586.375 1486,587.702 1489.44,589.029 1492.88,590.356 1496.32,591.683 1499.76,593.01 
  1503.2,594.337 1506.64,595.664 1510.08,596.99 1513.52,598.317 1516.96,599.644 1520.4,600.971 1523.84,602.298 1527.28,603.625 1530.72,604.952 1534.16,606.279 
  1537.6,607.606 1541.04,608.932 1544.48,610.259 1547.92,611.586 1551.36,612.913 1554.8,614.24 1558.24,615.567 1561.68,616.894 1565.12,618.221 1568.56,619.547 
  1572,620.874 1575.44,622.201 1578.88,623.528 1582.32,624.855 1585.76,626.182 1589.2,627.509 1592.64,628.836 1596.08,630.162 1599.52,631.489 1602.96,632.816 
  1606.4,634.143 1609.84,635.47 1613.28,636.797 1616.72,638.124 1620.16,639.451 1623.6,640.777 1627.04,642.104 1630.48,643.431 1633.92,644.758 1637.36,646.085 
  1640.8,647.412 1644.24,648.739 1647.68,650.066 1651.12,651.392 1654.56,652.719 1658,654.046 1661.44,655.373 1664.88,656.7 1668.32,658.027 1671.76,659.354 
  1675.2,660.681 1678.64,662.007 1682.08,663.334 1685.52,664.661 1688.96,665.988 1692.4,667.315 1695.84,668.642 1699.28,669.969 1702.72,671.296 1706.16,672.622 
  1709.6,673.949 1713.04,675.276 1716.48,676.603 1719.92,677.93 1723.36,679.257 1726.8,680.584 1730.24,681.911 1733.68,683.238 1737.12,684.564 1740.56,685.891 
  1744,687.218 1747.44,688.545 1750.88,689.872 1754.32,691.199 1757.76,692.526 1761.2,693.853 1764.64,695.179 1768.08,696.506 1771.52,697.833 1774.96,699.16 
  1778.4,700.487 1781.84,701.814 1785.28,703.141 1788.72,704.468 1792.16,705.794 1795.6,707.121 1799.04,708.448 1802.48,709.775 1805.92,711.102 1809.36,712.429 
  1812.8,713.756 1816.23,715.083 1819.67,716.409 1823.11,717.736 1826.55,719.063 1829.99,720.39 1833.43,721.717 1836.87,723.044 1840.31,724.371 1843.75,725.698 
  1847.19,727.024 1850.63,728.351 1854.07,729.678 1857.51,731.005 1860.95,732.332 1864.39,733.659 1867.83,734.986 1871.27,736.313 1874.71,737.639 1878.15,738.966 
  1881.59,740.293 1885.03,741.62 1888.47,742.947 1891.91,744.274 1895.35,745.601 1898.79,746.928 1902.23,748.254 1905.67,749.581 1909.11,750.908 1912.55,752.235 
  1915.99,753.562 1919.43,754.889 1922.87,756.216 1926.31,757.543 1929.75,758.87 1933.19,760.196 1936.63,761.523 1940.07,762.85 1943.51,764.177 1946.95,765.504 
  1950.39,766.831 1953.83,768.158 1957.27,769.485 1960.71,770.811 1964.15,772.138 1967.59,773.465 1971.03,774.792 1974.47,776.119 1977.91,777.446 1981.35,778.773 
  1984.79,780.1 1988.23,781.426 1991.67,782.753 1995.11,784.08 1998.55,785.407 2001.99,786.734 2005.43,788.061 2008.87,789.388 2012.31,790.715 2015.75,792.041 
  2019.19,793.368 2022.63,794.695 2026.07,796.022 2029.51,797.349 2032.95,798.676 2036.39,800.003 2039.83,801.33 2043.27,802.656 2046.71,803.983 2050.15,805.31 
  2053.59,806.637 2057.03,807.964 2060.47,809.291 2063.91,810.618 2067.35,811.945 2070.79,813.271 2074.23,814.598 2077.67,815.925 2081.11,817.252 2084.55,818.579 
  2087.99,819.906 2091.43,821.233 2094.87,822.56 2098.31,823.886 2101.75,825.213 2105.19,826.54 2108.63,827.867 2112.07,829.194 2115.51,830.521 2118.95,831.848 
  2122.39,833.175 2125.83,834.502 2129.27,835.828 2132.71,837.155 2136.15,838.482 2139.59,839.809 2143.03,841.136 2146.47,842.463 2149.91,843.79 2153.35,845.117 
  2156.78,846.443 2160.22,847.77 2163.66,849.097 2167.1,850.424 2170.54,851.751 2173.98,853.078 2177.42,854.405 2180.86,855.732 2184.3,857.058 2187.74,858.385 
  2191.18,859.712 2194.62,861.039 2198.06,862.366 2201.5,863.693 2204.94,865.02 2208.38,866.347 2211.82,867.673 2215.26,869 2218.7,870.327 2222.14,871.654 
  2225.58,872.981 2229.02,874.308 2232.46,875.635 2235.9,876.962 2239.34,878.288 2242.78,879.615 2246.22,880.942 2249.66,882.269 2253.1,883.596 2256.54,884.923 
  2259.98,886.25 2263.42,887.577 2266.86,888.903 2270.3,890.23 2273.74,891.557 2277.18,892.884 2280.62,894.211 2284.06,895.538 2287.5,896.865 2290.94,898.192 
  
  "/>
<polyline clip-path="url(#clip4302)" style="stroke:#e26f46; stroke-width:4; stroke-opacity:1; fill:none" points="
  230.442,88.0053 233.882,89.6397 237.322,92.4013 240.762,96.35 244.201,101.578 247.641,108.22 251.081,116.47 254.521,126.611 257.961,139.069 261.401,154.518 
  264.841,174.099 268.281,199.988 271.721,237.172 275.161,302.336 278.6,510.03 282.04,291.905 285.48,238.314 288.92,207.848 292.36,187.524 295.8,173.112 
  299.24,162.71 302.68,155.312 306.12,150.337 309.56,147.433 312.999,146.395 316.439,147.11 319.879,149.548 323.319,153.749 326.759,159.829 330.199,168.008 
  333.639,178.646 337.079,192.344 340.519,210.135 343.959,233.98 347.398,268.27 350.838,326.721 354.278,597.386 357.718,337.398 361.158,277.639 364.598,244.709 
  368.038,222.892 371.478,207.398 374.918,196.134 378.357,188.009 381.797,182.396 385.237,178.917 388.677,177.344 392.117,177.552 395.557,179.495 398.997,183.199 
  402.437,188.763 405.877,196.382 409.317,206.383 412.756,219.305 416.196,236.067 419.636,258.374 423.076,289.882 426.516,341.007 429.956,481.174 433.396,387.376 
  436.836,316.258 440.276,279.848 443.716,256.282 447.155,239.699 450.595,227.666 454.035,218.95 457.475,212.852 460.915,208.953 464.355,207.001 467.795,206.852 
  471.235,208.445 474.675,211.791 478.115,216.975 481.554,224.17 484.994,233.674 488.434,245.976 491.874,261.903 495.314,282.955 498.754,312.245 502.194,358.024 
  505.634,461.32 509.074,441.67 512.514,355.127 515.953,314.857 519.393,289.482 522.833,271.816 526.273,259.036 529.713,249.756 533.153,243.2 536.593,238.909 
  540.033,236.603 543.473,236.121 546.913,237.387 550.352,240.399 553.792,245.228 557.232,252.028 560.672,261.07 564.112,272.798 567.552,287.96 570.992,307.887 
  574.432,335.257 577.872,376.752 581.311,459.854 584.751,505.835 588.191,395.124 591.631,350.266 595.071,322.887 598.511,304.061 601.951,290.501 605.391,280.638 
  608.831,273.615 612.271,268.926 615.71,266.264 619.15,265.45 622.59,266.392 626.03,269.075 629.47,273.555 632.91,279.971 636.35,288.567 639.79,299.748 
  643.23,314.191 646.67,333.083 650.109,358.744 653.549,396.673 656.989,466.518 660.429,594.846 663.869,436.741 667.309,386.226 670.749,356.576 674.189,336.485 
  677.629,322.092 681.069,311.618 684.508,304.111 687.948,299.014 691.388,295.991 694.828,294.841 698.268,295.458 701.708,297.814 705.148,301.951 708.588,307.99 
  712.028,316.154 715.468,326.812 718.907,340.576 722.347,358.508 725.787,382.634 729.227,417.537 732.667,477.882 736.107,1270.92 739.547,480.547 742.987,422.841 
  746.427,390.583 749.867,369.104 753.306,353.818 756.746,342.701 760.186,334.691 763.626,329.175 767.066,325.783 770.506,324.293 773.946,324.585 777.386,326.615 
  780.826,330.413 784.265,336.084 787.705,343.828 791.145,353.982 794.585,367.103 798.025,384.144 801.465,406.88 804.905,439.176 808.345,492.33 811.785,652.992 
  815.225,527.445 818.664,460.234 822.104,424.949 825.544,401.933 828.984,385.688 832.424,373.893 835.864,365.358 839.304,359.41 842.744,355.641 846.184,353.808 
  849.624,353.773 853.063,355.478 856.503,358.94 859.943,364.249 863.383,371.585 866.823,381.255 870.263,393.765 873.703,409.972 877.143,431.444 880.583,461.467 
  884.023,508.964 887.462,622.267 890.902,579.055 894.342,498.573 897.782,459.718 901.222,434.993 904.662,417.712 908.102,405.197 911.542,396.115 914.982,389.721 
  918.422,385.568 921.861,383.386 925.301,383.021 928.741,384.402 932.181,387.531 935.621,392.484 939.061,399.423 942.501,408.626 945.941,420.553 949.381,435.979 
  952.821,456.293 956.26,484.314 959.7,527.228 963.14,616.404 966.58,638.751 970.02,538.083 973.46,494.949 976.9,468.305 980.34,449.9 983.78,436.62 
  987.219,426.966 990.659,420.11 994.099,415.562 997.539,413.027 1000.98,412.33 1004.42,413.387 1007.86,416.186 1011.3,420.788 1014.74,427.339 1018.18,436.09 
  1021.62,447.462 1025.06,462.153 1028.5,481.4 1031.94,507.641 1035.38,546.757 1038.82,620.733 1042.26,715.74 1045.7,579.089 1049.14,530.712 1052.58,501.896 
  1056.02,482.264 1059.46,468.17 1062.9,457.915 1066.34,450.58 1069.78,445.628 1073.22,442.733 1076.66,441.701 1080.1,442.432 1083.54,444.903 1086.98,449.16 
  1090.42,455.331 1093.86,463.645 1097.3,474.484 1100.74,488.481 1104.18,506.742 1107.62,531.388 1111.06,567.298 1114.5,630.656 1117.94,861.601 1121.38,622.068 
  1124.82,567.096 1128.26,535.796 1131.7,514.818 1135.14,499.853 1138.58,488.965 1142.01,481.133 1145.45,475.765 1148.89,472.503 1152.33,471.133 1155.77,471.538 
  1159.21,473.682 1162.65,477.598 1166.09,483.397 1169.53,491.286 1172.97,501.614 1176.41,514.955 1179.85,532.299 1183.29,555.505 1186.73,588.667 1190.17,644.123 
  1193.61,836.945 1197.05,667.784 1200.49,604.218 1203.93,570.042 1207.37,547.58 1210.81,531.678 1214.25,520.122 1217.69,511.773 1221.13,505.976 1224.57,502.34 
  1228.01,500.627 1231.45,500.705 1234.89,502.523 1238.33,506.101 1241.77,511.535 1245.21,519.011 1248.65,528.847 1252.09,541.566 1255.53,558.055 1258.97,579.952 
  1262.41,610.728 1265.85,660.043 1269.29,785.634 1272.73,717.55 1276.17,642.228 1279.61,604.679 1283.05,580.567 1286.49,563.654 1289.93,551.392 1293.37,542.503 
  1296.81,536.264 1300.25,532.245 1303.69,530.184 1307.13,529.933 1310.57,531.425 1314.01,534.669 1317.45,539.744 1320.89,546.818 1324.33,556.18 1327.77,568.304 
  1331.21,583.993 1334.65,604.693 1338.09,633.374 1341.53,677.761 1344.97,773.848 1348.41,773.954 1351.85,681.332 1355.29,639.76 1358.73,613.801 1362.17,595.792 
  1365.61,582.78 1369.05,573.325 1372.49,566.629 1375.93,562.218 1379.37,559.804 1382.81,559.221 1386.25,560.389 1389.69,563.3 1393.13,568.022 1396.57,574.703 
  1400.01,583.607 1403.45,595.165 1406.89,610.101 1410.33,629.701 1413.77,656.525 1417.21,696.858 1420.65,775.348 1424.09,843.303 1427.53,721.82 1430.97,675.354 
  1434.41,647.308 1437.85,628.105 1441.29,614.294 1444.73,604.246 1448.17,597.075 1451.61,592.262 1455.05,589.489 1458.49,588.571 1461.93,589.412 1465.37,591.994 
  1468.81,596.367 1472.25,602.665 1475.69,611.124 1479.12,622.14 1482.56,636.367 1486,654.951 1489.44,680.115 1492.88,717.046 1496.32,783.603 1499.76,950.323 
  1503.2,764.113 1506.64,711.543 1510.08,681.116 1513.52,660.605 1516.96,645.939 1520.4,635.268 1523.84,627.605 1527.28,622.377 1530.72,619.239 1534.16,617.982 
  1537.6,618.497 1541.04,620.75 1544.48,624.779 1547.92,630.701 1551.36,638.73 1554.8,649.225 1558.24,662.781 1561.68,680.422 1565.12,704.09 1568.56,738.119 
  1572,795.965 1575.44,1045.51 1578.88,808.874 1582.32,748.437 1585.76,715.264 1589.2,693.311 1592.64,677.727 1596.08,666.397 1599.52,658.221 1602.96,652.567 
  1606.4,649.055 1609.84,647.456 1613.28,647.642 1616.72,649.567 1620.16,653.256 1623.6,658.809 1627.04,666.419 1630.48,676.414 1633.92,689.333 1637.36,706.096 
  1640.8,728.407 1644.24,759.928 1647.68,811.096 1651.12,951.664 1654.56,857.197 1658,786.174 1661.44,749.791 1664.88,726.238 1668.32,709.664 1671.76,697.638 
  1675.2,688.927 1678.64,682.834 1682.08,678.94 1685.52,676.993 1688.96,676.849 1692.4,678.447 1695.84,681.798 1699.28,686.988 1702.72,694.191 1706.16,703.703 
  1709.6,716.016 1713.04,731.956 1716.48,753.029 1719.92,782.355 1723.36,828.215 1726.8,931.958 1730.24,911.172 1733.68,824.951 1737.12,784.753 1740.56,759.411 
  1744,741.763 1747.44,728.997 1750.88,719.726 1754.32,713.178 1757.76,708.893 1761.2,706.592 1764.64,706.115 1768.08,707.386 1771.52,710.403 1774.96,715.236 
  1778.4,722.041 1781.84,731.087 1785.28,742.822 1788.72,757.991 1792.16,777.928 1795.6,805.315 1799.04,846.847 1802.48,930.096 1805.92,975.443 1809.36,865.023 
  1812.8,820.211 1816.23,792.851 1819.67,774.036 1823.11,760.482 1826.55,750.624 1829.99,743.604 1833.43,738.918 1836.87,736.258 1840.31,735.445 1843.75,736.388 
  1847.19,739.072 1850.63,743.552 1854.07,749.968 1857.51,758.563 1860.95,769.744 1864.39,784.185 1867.83,803.073 1871.27,828.73 1874.71,866.649 1878.15,936.459 
  1881.59,1065.12 1885.03,906.784 1888.47,856.25 1891.91,826.591 1895.35,806.496 1898.79,792.099 1902.23,781.622 1905.67,774.112 1909.11,769.013 1912.55,765.988 
  1915.99,764.835 1919.43,765.449 1922.87,767.802 1926.31,771.935 1929.75,777.97 1933.19,786.128 1936.63,796.778 1940.07,810.532 1943.51,828.45 1946.95,852.553 
  1950.39,887.41 1953.83,947.622 1957.27,1446.71 1960.71,950.81 1964.15,892.97 1967.59,860.666 1971.03,839.162 1974.47,823.861 1977.91,812.732 1981.35,804.711 
  1984.79,799.187 1988.23,795.787 1991.67,794.289 1995.11,794.573 1998.55,796.594 2001.99,800.383 2005.43,806.043 2008.87,813.775 2012.31,823.914 2015.75,837.016 
  2019.19,854.029 2022.63,876.723 2026.07,908.942 2029.51,961.896 2032.95,1120.28 2036.39,998.067 2039.83,930.503 2043.27,895.113 2046.71,872.045 2050.15,855.768 
  2053.59,843.949 2057.03,835.396 2060.47,829.432 2063.91,825.651 2067.35,823.805 2070.79,823.756 2074.23,825.449 2077.67,828.897 2081.11,834.19 2084.55,841.508 
  2087.99,851.156 2091.43,863.638 2094.87,879.807 2098.31,901.22 2101.75,931.139 2105.19,978.388 2108.63,1090.16 2112.07,1050.32 2115.51,969.045 2118.95,929.998 
  2122.39,905.182 2125.83,887.846 2129.27,875.293 2132.71,866.182 2136.15,859.762 2139.59,855.587 2143.03,853.386 2146.47,853.001 2149.91,854.362 2153.35,857.471 
  2156.78,862.401 2160.22,869.314 2163.66,878.487 2167.1,890.377 2170.54,905.753 2173.98,925.992 2177.42,953.887 2180.86,996.524 2184.3,1084.47 2187.74,1111.23 
  2191.18,1008.81 2194.62,965.355 2198.06,938.573 2201.5,920.088 2204.94,906.755 2208.38,897.06 2211.82,890.17 2215.26,885.594 2218.7,883.033 2222.14,882.311 
  2225.58,883.342 2229.02,886.115 2232.46,890.689 2235.9,897.207 2239.34,905.92 2242.78,917.244 2246.22,931.872 2249.66,951.027 2253.1,977.117 2256.54,1015.92 
  2259.98,1088.79 2263.42,1191.69 2266.86,1050.22 2270.3,1001.31 2273.74,972.284 2277.18,952.534 2280.62,938.361 2284.06,928.047 2287.5,920.665 2290.94,915.673 
  
  "/>
<polygon clip-path="url(#clip4300)" points="
1877.58,312.204 2280.76,312.204 2280.76,130.764 1877.58,130.764 
  " fill="#ffffff" fill-rule="evenodd" fill-opacity="1"/>
<polyline clip-path="url(#clip4300)" style="stroke:#000000; stroke-width:4; stroke-opacity:1; fill:none" points="
  1877.58,312.204 2280.76,312.204 2280.76,130.764 1877.58,130.764 1877.58,312.204 
  "/>
<polyline clip-path="url(#clip4300)" style="stroke:#009af9; stroke-width:4; stroke-opacity:1; fill:none" points="
  1901.58,191.244 2045.58,191.244 
  "/>
<g clip-path="url(#clip4300)">
<text style="fill:#000000; fill-opacity:1; font-family:Arial,Helvetica Neue,Helvetica,sans-serif; font-size:48px; text-anchor:start;" transform="rotate(0, 2069.58, 208.744)" x="2069.58" y="208.744">y1</text>
</g>
<polyline clip-path="url(#clip4300)" style="stroke:#e26f46; stroke-width:4; stroke-opacity:1; fill:none" points="
  1901.58,251.724 2045.58,251.724 
  "/>
<g clip-path="url(#clip4300)">
<text style="fill:#000000; fill-opacity:1; font-family:Arial,Helvetica Neue,Helvetica,sans-serif; font-size:48px; text-anchor:start;" transform="rotate(0, 2069.58, 269.224)" x="2069.58" y="269.224">ampere</text>
</g>
</svg>
